<svg xmlns="http://www.w3.org/2000/svg" viewBox="0 0 887 228.62"><g id="Layer_2" data-name="Layer 2"><g id="Layer_1-2" data-name="Layer 1"><path d="M142.86,157.78c-3.56,0-5.93-1.42-8.77-7.11-8.29-16.58-17.77-28.9-22.74-33.64,26.77-24.87,40.74-45.72,40.74-69.17C152.09,19.9,131.72,0,91,0,40.51,0,0,35.77,0,59.94c0,8.53,3.79,14,10.19,14a13.23,13.23,0,0,0,5.45-1.19c8.05-15.87,25.82-33.17,45.48-35.54C52.59,65.15,44.54,88.6,37.67,109,27.48,138.83,25.82,148.3,25.82,154.7c0,9.24,9,23.22,22.51,23.22,5.92,0,10-1.66,11.84-4.27.48-8.05,3.8-28.19,8.06-45.48,10.9,3.55,17.06,14.92,32,47.38,5.92,12.79,10.19,16.35,19.19,16.35,19.43,0,36-14,36-27a13.73,13.73,0,0,0-2.84-8.53A53.43,53.43,0,0,1,142.86,157.78ZM94.29,106.61A46.89,46.89,0,0,0,82,105a40.28,40.28,0,0,0-7.82.71C81.5,75.34,85.76,51.17,86.23,36.25,106.61,37.67,114,47.86,114,60.41,114,74.63,109.45,86.23,94.29,106.61Z"/><path d="M878,114.19c-13.51,20.61-34.36,34.35-50.47,34.35-9.24,0-11.37-5.92-11.37-16.58,32.46-7.35,44.07-22.75,44.07-42.65,0-16.58-9-24.4-25.35-24.4-20.84,0-46.75,30-51.39,62.28a137.85,137.85,0,0,1-25.37,24.43c1.66-14.69,4.26-33.17,7.11-46.67C768.78,87.66,773,79.13,773,69.89c0-8.29-11.61-19.19-26.53-19.19-2.61,0-7.11,1.18-9,3.32,0,5.68-.48,15.39-1.42,23.92-1.19-1.18-2.85-1.66-6.16-1.66-18.62,0-42.74,23.33-49.4,50.06-11.21,13.48-20,19.36-23.81,19.36-1.9,0-2.84-.71-2.84-5.45,0-6.16,3.08-21.08,11.37-50.94a63.42,63.42,0,0,0,2.6-15.63c0-8.29-8.76-19.19-24.87-19.19-3.32,0-6.4.95-8.29,3.08L634,71.31c-1.19-1.19-2.85-1.66-6.16-1.66-20.06,0-44.18,26.65-51.11,56.39-11.11,14.58-19.89,23-23.76,23-2.14,0-3.32-1-3.32-3.56,0-5.92,3.32-17.29,6.4-28.66,3.31-12.09,4.5-17.06,4.5-23.46,0-9.24-5.92-16.58-14.22-16.58-11.13,0-20.13,8.29-37.9,32.93,4.74-10,6.39-17.06,6.39-23.22,0-7.82-5.21-14-14.21-14-10.42,0-23.22,9.24-40.51,39.09,5.68-12.79,10.19-27,10.19-32.93,0-7.1-4.51-10.89-11.38-10.89-10.89,0-21.08,17-25.11,42.17-11.13,19.9-29.85,41.22-34.82,41.22-2.14,0-2.85-1.42-2.85-3.32,0-5,5-17.77,10.66-30.32,4.51-9.72,5.93-15.64,5.93-21.8,0-9.24-5.21-17.53-16.11-17.53-10.43,0-21.8,4.26-41.22,33.4,5.68-11.37,5.92-16.82,5.92-23,0-7.81-5-14-14-14-10.42,0-22.51,5-37.43,30.79,5.68-12.55,6.87-20.37,6.87-26.29,0-7.11-3.79-9.48-10.66-9.48-20.38,0-29.38,21.09-30.33,45.25-.34.93-.67,1.89-1,2.84-14.31,19.66-25,28.43-30.28,28.43-1.89,0-3.31-.71-3.31-3.79,0-4.5,9.95-26.53,14.92-40,3.55-9.47,4.5-14.21,4.5-18.47,0-9.72-9.71-19.19-23-19.19a12.69,12.69,0,0,0-10,4.5c-1.18,20.37-4.5,36.95-12.55,62.54-4.74,5-12.32,10.66-16.35,10.66-3.32,0-4.74-2.37-4.74-6.16s1.42-10.9,3.79-19.42c12.08-19.67,18.24-33.88,18.24-41.46,0-7.11-4-9.48-11.37-9.48-16.58,0-39.33,26.53-39.33,41.22,0,4.74.48,9.72,3.08,14.69-6.15,15.16-9.47,28.9-9.47,36,0,14.22,3.32,22.27,17.29,22.27,10.66,0,25.12-10,36.49-31.51a67.4,67.4,0,0,0-1.42,12.32c0,12.32,5.92,15.4,15.63,15.4,9.95,0,22.51-7.58,33.64-17.53,3-2.63,5.89-5.41,8.6-8.25.66,13.94,6.68,26.73,19.83,26.73,5.69,0,10-2.13,12.56-5.21.71-16.11,3.08-30.57,6.39-48.81,6.16-7.34,9.48-10.42,12.56-10.42,1.9,0,2.84,1.18,2.84,3.31,0,2.37-1.42,7.35-2.6,12.56-2.85,11.61-4.74,20.85-4.74,28.19.24,13,6.4,22,18.95,22,5.92,0,9.48-1.66,12.56-4.74.71-16.11,1.18-24.4,4.5-42.65,7.11-9,16.82-17.76,20.37-17.76,1.9,0,2.85,1.18,2.85,3.08,0,5.21-12.8,29.37-12.8,45,0,13,4.74,19.19,18.72,19.19,13.27,0,31.74-12.56,44.3-33.41,0,15.88,7.34,28.43,20.61,28.43,5.45,0,7.11-.71,9.48-3.08.71-16.11,2.6-27.72,5.92-46,9.24-12.79,12.79-14.92,14.93-14.92,1.89,0,2.84.71,2.84,2.84,0,2.37-1.42,6.4-3.32,11.61-4.26,11.37-6.39,23.93-6.39,31.51.23,13,7.58,20.85,20.13,20.85,5,0,7.11-1.19,9.48-3.56.71-16.11,2.84-27.72,6.16-46,7.34-9,11.13-11.61,14.21-11.61a2.52,2.52,0,0,1,2.85,2.85c0,5.21-5.69,28.9-5.69,40.27,0,13,4.74,19.19,18.72,19.19,11.87,0,28.11-12.45,40.43-26.2,2.94,14,11.5,21.23,22.35,21.23,8.29,0,19.19-5.93,26.77-27.49a72.07,72.07,0,0,0-.71,9.24c0,15.17,6.64,19.43,17.06,19.43,9.48,0,25.85-11.79,38.52-24.91,2.95,13.75,11.69,19.93,22.6,19.93,11.14,0,21.56-11.6,24.64-17.53-1.66,17.77-3.55,33.64-4.26,39.09-1,6.87-3.08,9.24-6.63,9.24-7.59,0-18.25-12.08-28-27-12.08.71-19.43,11.37-19.43,21.08,0,18.72,23,32.46,42.17,32.46,18.72,0,39.33-10.9,43.59-42.88.72-4.51,1.66-9.48,1.66-9.48a194.8,194.8,0,0,0,28-24.57c3.58,16.46,14.08,25.52,32.46,25.52,30.79,0,70.36-37.67,70.36-55.2C887,118.22,883.68,114.43,878,114.19Zm-49-24.4c2.84,0,4.73,2.84,4.73,7.82,0,7.1-2.84,14.45-16.11,16.82C819.24,97.84,825.64,89.79,829,89.79ZM625.21,136c-2.84,3.55-6.16,5.92-9.48,5.92s-6.16-.95-6.16-9.72c0-18.24,11.38-37.9,23.22-45.48ZM729,138.83c-3.32,3.32-5.92,4.74-9.72,4.74-3.31,0-5.68-1.19-5.68-9.95,0-13.51,7.82-32.7,21.32-40C733,104.71,730.87,124.38,729,138.83Z"/></g></g></svg>