<svg height='100px' width='100px'  fill="#000000" xmlns="http://www.w3.org/2000/svg" xmlns:xlink="http://www.w3.org/1999/xlink" version="1.1" x="0px" y="0px" viewBox="0 0 100 100" style="enable-background:new 0 0 100 100;" xml:space="preserve"><style type="text/css">
	.st0{fill:none;stroke:#000000;stroke-width:2;stroke-linecap:round;stroke-linejoin:round;stroke-miterlimit:10;}
	
		.st1{fill:none;stroke:#000000;stroke-width:2;stroke-linecap:round;stroke-linejoin:round;stroke-miterlimit:10;stroke-dasharray:6,5;}
	.st2{stroke:#000000;stroke-width:2;stroke-linecap:round;stroke-linejoin:round;stroke-miterlimit:10;}
	.st3{fill:none;stroke:#000000;stroke-width:2;stroke-linecap:round;stroke-linejoin:round;}
	.st4{fill:none;stroke:#000000;stroke-width:2;stroke-linecap:round;stroke-linejoin:round;stroke-dasharray:11.0102,11.0102;}
	.st5{fill:none;stroke:#000000;stroke-width:2;stroke-linecap:round;stroke-linejoin:round;stroke-dasharray:6.063,5.0525;}
</style><path d="M34.3,54.2c0,17.8,14.4,32.2,32.2,32.2c0.6,0,1-0.4,1-1s-0.4-1-1-1c-16.6,0-30.2-13.5-30.2-30.2c0-16.1,12.6-29.3,28.5-30.1  l-6.1,6.1c-0.4,0.4-0.4,1,0,1.4c0.2,0.2,0.5,0.3,0.7,0.3s0.5-0.1,0.7-0.3l7.9-7.9c0.4-0.4,0.4-1,0-1.4l-7.9-7.9  c-0.4-0.4-1-0.4-1.4,0s-0.4,1,0,1.4l6.2,6.2C47.8,22.9,34.3,37,34.3,54.2z"></path></svg>