<svg height='100px' width='100px'  fill="#000000" xmlns="http://www.w3.org/2000/svg" xmlns:xlink="http://www.w3.org/1999/xlink" version="1.1" x="0px" y="0px" viewBox="0 0 100 100" style="enable-background:new 0 0 100 100;" xml:space="preserve"><path d="M78.8476562,10.6035156c-0.1572266-0.3691406-0.5185547-0.6083984-0.9199219-0.6083984H22.1357422  c-0.5527344,0-1,0.4472656-1,1V67.15625c0,0.4003906,0.2382812,0.7617188,0.6064453,0.9189453  c0.3681641,0.1582031,0.7949219,0.0800781,1.0839844-0.1953125l20.9160156-19.9628906  c6.4453125,9.4941406,10.5849609,20.5322266,11.9921875,32c0.7041016,5.7451172,5.5419922,10.078125,11.2529297,10.078125  c3.2294922,0,6.3115234-1.3857422,8.4560547-3.8007812c2.1591797-2.4316406,3.1767578-5.6826172,2.7910156-8.9199219  c-1.9951172-16.7548828-8.3183594-32.6835938-18.3007812-46.1220703l18.7148438-19.4638672  C78.9267578,11.3994141,79.0048828,10.9726562,78.8476562,10.6035156z M57.9023438,30.3789062  c-0.3408203,0.3544922-0.3730469,0.9042969-0.0771484,1.296875C67.890625,44.9736328,74.2607422,60.8232422,76.2480469,77.5107422  c0.3183594,2.6699219-0.5205078,5.3515625-2.2998047,7.3554688c-1.765625,1.9882812-4.3027344,3.1289062-6.9609375,3.1289062  c-4.7021484,0-8.6865234-3.5771484-9.2685547-8.3222656c-1.4941406-12.1796875-5.9902344-23.8896484-13.0009766-33.8632812  c-0.1679688-0.2382812-0.4306641-0.3916016-0.7207031-0.4199219c-0.0322266-0.0029297-0.0654297-0.0048828-0.0976562-0.0048828  c-0.2558594,0-0.5039062,0.0986328-0.6904297,0.2763672L23.1357422,64.8193359V11.9951172h52.4433594L57.9023438,30.3789062z"></path></svg>