<?xml version="1.0" encoding="utf-8"?>
<!-- Generator: Adobe Illustrator 25.0.1, SVG Export Plug-In . SVG Version: 6.00 Build 0)  -->
<svg version="1.1" id="Layer_1" xmlns="http://www.w3.org/2000/svg" xmlns:xlink="http://www.w3.org/1999/xlink" x="0px" y="0px"
	 viewBox="0 0 100 100" style="enable-background:new 0 0 100 100;" xml:space="preserve">
<g>
	<path d="M31,91c-0.5,0-1-0.2-1.4-0.6C29.2,90.1,29,89.6,29,89c0-0.5,0.2-1,0.6-1.4L66.2,50L29.6,12.4C29.2,12,29,11.5,29,11
		c0-0.5,0.2-1,0.6-1.4C30,9.2,30.5,9,31,9c0.5,0,1.1,0.2,1.4,0.6l38,39c0.8,0.8,0.8,2,0,2.8l-38,39C32.1,90.8,31.5,91,31,91z"/>
	<path d="M31,10c0.3,0,0.5,0.1,0.7,0.3l38,39c0.4,0.4,0.4,1,0,1.4l-38,39C31.5,89.9,31.3,90,31,90c-0.3,0-0.5-0.1-0.7-0.3
		c-0.4-0.4-0.4-1,0-1.4L67.6,50L30.3,11.7c-0.4-0.4-0.4-1,0-1.4C30.5,10.1,30.7,10,31,10 M31,8c-0.8,0-1.5,0.3-2.1,0.9
		C28.3,9.4,28,10.2,28,11c0,0.8,0.3,1.6,0.9,2.1l36,36.9l-36,36.9c-1.2,1.2-1.1,3.1,0.1,4.2c0.6,0.5,1.3,0.9,2.1,0.9
		c0.8,0,1.6-0.3,2.1-0.9l38-39c1.1-1.2,1.1-3,0-4.2l-38-39C32.6,8.3,31.8,8,31,8L31,8z"/>
</g>
</svg>
