<svg height='100px' width='100px'  fill="#000000" xmlns="http://www.w3.org/2000/svg" xmlns:xlink="http://www.w3.org/1999/xlink" version="1.1" x="0px" y="0px" viewBox="0 0 100 100" style="enable-background:new 0 0 100 100;" xml:space="preserve"><path d="M60.2636719,28.6384888v-8.2966919c0-0.5527344-0.4472656-1-1-1h-1.770813  c0.1199341-0.5424805,0.1858521-1.0974731,0.1858521-1.6630859C57.6787109,13.4443359,54.234375,10,50,10  s-7.6787109,3.4443359-7.6787109,7.6787109c0,0.5654907,0.0648193,1.1204834,0.1848755,1.6630859h-1.7698364  c-0.5527344,0-1,0.4472656-1,1v8.2966919c-7.8300781,2.6020508-13.9683228,7.9561157-17.3403931,14.6706543  c-0.0220337,0.0409546-0.0448608,0.0789185-0.0610962,0.1229858c-1.8098145,3.6491699-2.8221436,7.6836548-2.8221436,11.8989258  c0,10.4433594,6.1464844,20.0117188,16.0400391,24.9716797c4.4970703,2.2558594,8.5703125,5.1914062,12.1054688,8.7275391  C48.3037109,89.6757812,49.1513672,89.9980469,50,89.9980469c0.8476562,0,1.6962891-0.3222656,2.3417969-0.9677734  c3.5351562-3.5361328,7.6083984-6.4716797,12.1054688-8.7275391c9.8935547-4.9599609,16.0400391-14.5283203,16.0400391-24.9716797  C80.4873047,43.2932739,72.3864746,32.6670532,60.2636719,28.6384888z M50,12c3.1308594,0,5.6787109,2.5478516,5.6787109,5.6787109  c0,0.5730591-0.1109009,1.1255493-0.2762451,1.6630859H44.5714111c-0.1644287-0.5360107-0.2501221-1.0925293-0.2501221-1.6630859  C44.3212891,14.5478516,46.8691406,12,50,12z M41.7363281,21.3417969h2.131897c0.0023193,0,0.0044556,0.0009766,0.0067749,0.0009766  c0.0015869,0,0.0031128-0.0009766,0.0046997-0.0009766h14.3839722v6.9765625H41.7363281V21.3417969z M63.5507812,78.515625  c-4.6894531,2.3505859-8.9365234,5.4130859-12.6230469,9.1005859c-0.5117188,0.5097656-1.34375,0.5097656-1.8554688,0  c-3.6865234-3.6875-7.9335938-6.75-12.6230469-9.1005859c-4.2969971-2.1544189-7.8217163-5.2442017-10.3739014-8.9023438h47.8493652  C71.3724976,73.2714233,67.8477783,76.3612061,63.5507812,78.515625z M78.4873047,55.3310547  c0,4.3635254-1.1717529,8.5602417-3.2924805,12.2822266H24.8051758c-2.1207275-3.7219849-3.2924805-7.9187012-3.2924805-12.2822266  c0-3.7229614,0.8515015-7.2971191,2.3875122-10.5556641h52.199585  C77.6358032,48.0339355,78.4873047,51.6080933,78.4873047,55.3310547z M24.9578247,42.7753906  c3.3639526-5.7526855,8.9918213-10.2866211,16.0315552-12.4570312h18.0212402  c7.0397339,2.1704102,12.6676025,6.7043457,16.0315552,12.4570312H24.9578247z"></path><path d="M32.0693359,62.4072266c3.4257812,0,6.2128906-2.7871094,6.2128906-6.2128906s-2.7871094-6.2128906-6.2128906-6.2128906  s-6.2128906,2.7871094-6.2128906,6.2128906S28.6435547,62.4072266,32.0693359,62.4072266z M32.0693359,51.9814453  c2.3232422,0,4.2128906,1.8896484,4.2128906,4.2128906s-1.8896484,4.2128906-4.2128906,4.2128906  s-4.2128906-1.8896484-4.2128906-4.2128906S29.7460938,51.9814453,32.0693359,51.9814453z"></path><path d="M50,62.4072266c3.4257812,0,6.2128906-2.7871094,6.2128906-6.2128906S53.4257812,49.9814453,50,49.9814453  s-6.2128906,2.7871094-6.2128906,6.2128906S46.5742188,62.4072266,50,62.4072266z M50,51.9814453  c2.3232422,0,4.2128906,1.8896484,4.2128906,4.2128906S52.3232422,60.4072266,50,60.4072266  s-4.2128906-1.8896484-4.2128906-4.2128906S47.6767578,51.9814453,50,51.9814453z"></path><path d="M67.9306641,62.4072266c3.4257812,0,6.2128906-2.7871094,6.2128906-6.2128906s-2.7871094-6.2128906-6.2128906-6.2128906  c-3.4248047,0-6.2119141,2.7871094-6.2119141,6.2128906S64.5058594,62.4072266,67.9306641,62.4072266z M67.9306641,51.9814453  c2.3232422,0,4.2128906,1.8896484,4.2128906,4.2128906s-1.8896484,4.2128906-4.2128906,4.2128906  c-2.3222656,0-4.2119141-1.8896484-4.2119141-4.2128906S65.6083984,51.9814453,67.9306641,51.9814453z"></path></svg>