<svg height='100px' width='100px'  fill="#000000" xmlns="http://www.w3.org/2000/svg" xmlns:xlink="http://www.w3.org/1999/xlink" version="1.1" x="0px" y="0px" viewBox="0 0 100 100" style="enable-background:new 0 0 100 100;" xml:space="preserve"><path d="M44.3754883,80.6137695c0,3.1015625,2.5229492,5.6245117,5.6245117,5.6245117s5.6245117-2.5229492,5.6245117-5.6245117  c0-2.7597656-1.9992676-5.0568237-4.6245117-5.5307007V61.7402344c3.6929321-0.1256104,7.2140503-0.9369507,10.4364014-2.3198242  l6.4309082,19.7724609c-1.9242554,0.90979-3.2618408,2.8643188-3.2618408,5.1303711  C64.6054688,87.4536133,67.1518555,90,70.2822266,90s5.6767578-2.5463867,5.6767578-5.6767578  s-2.5463867-5.6772461-5.6767578-5.6772461c-0.1624756,0-0.3223877,0.0109863-0.4814453,0.0244141l-6.5421753-20.114502  c9.2493286-4.7567749,15.6311646-14.3200684,15.8249512-25.3718262h1.7103882c0.5522461,0,1-0.4477539,1-1s-0.4477539-1-1-1  H19.2060547c-0.5522461,0-1,0.4477539-1,1s0.4477539,1,1,1h1.7103882  c0.1968994,11.2296753,6.7809448,20.9260254,16.2718506,25.6010132l-6.4896851,19.9516602  c-0.3192749-0.0559692-0.645752-0.0907593-0.980835-0.0907593c-3.1303711,0-5.6767578,2.546875-5.6767578,5.6772461  S26.5874023,90,29.7177734,90s5.6767578-2.5463867,5.6767578-5.6767578c0-2.0869141-1.1350098-3.9096069-2.8170166-4.8961182  l6.446167-19.8179321C42.1204834,60.8755493,45.4815063,61.6205444,49,61.7402344v13.3428345  C46.3747559,75.5569458,44.3754883,77.8540039,44.3754883,80.6137695z M73.9589844,84.3232422  C73.9589844,86.3505859,72.3095703,88,70.2822266,88s-3.6767578-1.6494141-3.6767578-3.6767578  c0-2.027832,1.6494141-3.6772461,3.6767578-3.6772461S73.9589844,82.2954102,73.9589844,84.3232422z M29.7177734,88  c-2.0273438,0-3.6767578-1.6494141-3.6767578-3.6767578c0-2.027832,1.6494141-3.6772461,3.6767578-3.6772461  s3.6767578,1.6494141,3.6767578,3.6772461C33.3945312,86.3505859,31.7451172,88,29.7177734,88z M53.6245117,80.6137695  c0,1.9985352-1.6259766,3.6245117-3.6245117,3.6245117s-3.6245117-1.6259766-3.6245117-3.6245117  c0-1.9990234,1.6259766-3.625,3.6245117-3.625S53.6245117,78.6147461,53.6245117,80.6137695z M22.9163818,33.184082h54.1672363  C76.8067627,47.8875732,64.7680054,59.765625,50,59.765625S23.1932373,47.8875732,22.9163818,33.184082z"></path><path d="M44.7890625,17.8125c-2.7050781,0-4.90625,2.2011719-4.90625,4.90625s2.2011719,4.90625,4.90625,4.90625  c0.5522461,0,1-0.4477539,1-1s-0.4477539-1-1-1c-1.6025391,0-2.90625-1.3037109-2.90625-2.90625s1.3037109-2.90625,2.90625-2.90625  c2.7050781,0,4.90625-2.2011719,4.90625-4.90625S47.4941406,10,44.7890625,10c-0.5522461,0-1,0.4477539-1,1s0.4477539,1,1,1  c1.6025391,0,2.90625,1.3037109,2.90625,2.90625S46.3916016,17.8125,44.7890625,17.8125z"></path><path d="M54.9726562,17.8125c-2.7050781,0-4.90625,2.2011719-4.90625,4.90625s2.2011719,4.90625,4.90625,4.90625  c0.5522461,0,1-0.4477539,1-1s-0.4477539-1-1-1c-1.6025391,0-2.90625-1.3037109-2.90625-2.90625s1.3037109-2.90625,2.90625-2.90625  c2.7050781,0,4.90625-2.2011719,4.90625-4.90625S57.6777344,10,54.9726562,10c-0.5522461,0-1,0.4477539-1,1s0.4477539,1,1,1  c1.6025391,0,2.90625,1.3037109,2.90625,2.90625S56.5751953,17.8125,54.9726562,17.8125z"></path></svg>