<svg height='100px' width='100%'  fill="#000000" xmlns="http://www.w3.org/2000/svg" xmlns:xlink="http://www.w3.org/1999/xlink" version="1.1" x="0px" y="0px" viewBox="0 0 100 100" style="enable-background:new 0 0 100 100;" xml:space="preserve"><path d="M11,80.164h5.406C17.504,85.762,22.443,90,28.358,90s10.854-4.238,11.953-9.836h19.767C61.176,85.762,66.116,90,72.031,90  s10.854-4.238,11.953-9.836H89c0.553,0,1-0.448,1-1V57.5c0-0.552-0.447-1-1-1h-9.751v-14.51c0-0.552-0.447-1-1-1l-3.331,0V26.494  c0-0.552-0.447-1-1-1l-4.418,0V11c0-0.552-0.447-1-1-1L31.503,9.998c-0.266,0-0.52,0.105-0.707,0.293s-0.293,0.442-0.293,0.707  v14.494l-4.419,0c-0.266,0-0.52,0.105-0.707,0.293s-0.293,0.442-0.293,0.707v14.496l-3.335,0c-0.266,0-0.52,0.105-0.707,0.293  s-0.293,0.442-0.293,0.707V56.5H11c-0.553,0-1,0.448-1,1v21.665C10,79.716,10.447,80.164,11,80.164z M28.358,88  c-5.616,0-10.185-4.569-10.185-10.185c0-5.616,4.568-10.185,10.185-10.185s10.185,4.569,10.185,10.185  C38.543,83.431,33.975,88,28.358,88z M72.031,88c-5.616,0-10.186-4.569-10.186-10.185c0-5.616,4.569-10.185,10.186-10.185  s10.185,4.569,10.185,10.185C82.216,83.431,77.647,88,72.031,88z M32.503,11.998L67.5,12v13.494l-34.997-0.001V11.998z   M27.084,27.492l45.834,0.001v13.495l-45.834-0.001V27.492z M22.749,42.988l54.5,0.001V56.5h-54.5V42.988z M12,58.5h76v19.665  h-3.802c0.003-0.117,0.018-0.231,0.018-0.349c0-6.719-5.466-12.185-12.185-12.185s-12.186,5.466-12.186,12.185  c0,0.118,0.014,0.232,0.018,0.349H40.525c0.003-0.117,0.018-0.231,0.018-0.349c0-6.719-5.466-12.185-12.185-12.185  s-12.185,5.466-12.185,12.185c0,0.118,0.014,0.232,0.018,0.349H12V58.5z"></path></svg>