<svg height='100px' width='100px'  fill="#000000" xmlns="http://www.w3.org/2000/svg" xmlns:xlink="http://www.w3.org/1999/xlink" version="1.1" x="0px" y="0px" viewBox="0 0 100 100" style="enable-background:new 0 0 100 100;" xml:space="preserve"><path d="M10.5063477,79.9443359l17.496582,9.9257812c0.022644,0.0128174,0.0476685,0.0178833,0.0709839,0.0288086  c0.0255127,0.012085,0.0507202,0.0214844,0.0773926,0.0313721C28.2633667,89.9716797,28.3787842,90,28.496582,90  s0.2332153-0.0283203,0.3452759-0.0697021c0.0266724-0.0098877,0.0518799-0.0192871,0.0773926-0.0313721  c0.0233154-0.0109253,0.0483398-0.0159912,0.0709839-0.0288086l17.496582-9.9257812  c0.0007324-0.0004272,0.0012207-0.0010376,0.0019531-0.0014648c0.0180054-0.0102539,0.0324707-0.0264893,0.0499268-0.0379028  c0.1329346-0.0875854,0.2446899-0.1997681,0.3216553-0.3344116c0.0006714-0.0011597,0.00177-0.0019531,0.0024414-0.0031738  c0.0021362-0.0037842,0.00177-0.0081177,0.0039062-0.0119629c0.0542603-0.0986938,0.0863647-0.2073364,0.1049805-0.3201904  c0.0048828-0.029541,0.0094604-0.057373,0.0115967-0.0869751c0.0018921-0.0250244,0.0098877-0.0487061,0.0098877-0.0740356  V59.2216797c0-0.0253296-0.0079956-0.0490112-0.0098877-0.0740356c-0.0021362-0.0296021-0.0067139-0.0574341-0.0115967-0.0869751  c-0.0186157-0.112854-0.0507202-0.2214966-0.1049805-0.3201904c-0.0021362-0.0038452-0.00177-0.0081787-0.0039062-0.0119629  c-0.0005493-0.0009766-0.0015259-0.0014648-0.0020752-0.0024414c-0.0584106-0.102356-0.1392212-0.189209-0.230896-0.2659302  c-0.0228271-0.019104-0.0452271-0.0358887-0.069458-0.0527344c-0.0253906-0.0177612-0.0462646-0.0403442-0.0735474-0.0558472  L29.496582,48.7130127V23.0576172c3.1479492-0.4824219,5.5668945-3.2099609,5.5668945-6.4912109  C35.0634766,12.9453125,32.1176758,10,28.496582,10c-3.6206055,0-6.5664062,2.9453125-6.5664062,6.5664062  c0,0.5527344,0.4477539,1,1,1s1-0.4472656,1-1C23.9301758,14.0488281,25.9785156,12,28.496582,12  s4.5668945,2.0488281,4.5668945,4.5664062c0,2.5185547-2.0488281,4.5673828-4.5668945,4.5673828c-0.5522461,0-1,0.4472656-1,1  v26.5792236l-16.9902344,9.6385498c-0.0265503,0.0150757-0.046875,0.0371704-0.0716553,0.0543823  c-0.0257568,0.0178223-0.0495605,0.0355835-0.0737305,0.0559692c-0.0906372,0.0762939-0.1705322,0.1626587-0.2284546,0.2641602  c-0.0005493,0.0009766-0.0015869,0.0014648-0.0021362,0.0024414c-0.0021362,0.0037842-0.00177,0.0081177-0.0039062,0.0119629  c-0.0542603,0.0986938-0.0863647,0.2073364-0.1049805,0.3201904c-0.0048828,0.029541-0.0094604,0.057373-0.0115967,0.0869751  C10.0079956,59.1726685,10,59.1963501,10,59.2216797v19.8525391c0,0.0253296,0.0079956,0.0490112,0.0098877,0.0740356  c0.0021362,0.0296021,0.0067139,0.0574341,0.0115967,0.0869751c0.0186157,0.112854,0.0507202,0.2214966,0.1049805,0.3201904  c0.0021362,0.0038452,0.00177,0.0081787,0.0039062,0.0119629c0.0006714,0.0012207,0.00177,0.0020142,0.0024414,0.0031738  c0.0769653,0.1346436,0.1887207,0.2468262,0.3216553,0.3344116c0.0174561,0.0114136,0.0319214,0.0276489,0.0499268,0.0379028  C10.505127,79.9432983,10.5056152,79.9439087,10.5063477,79.9443359z M44.9931641,77.3566895l-6.1210938-3.4727173v-9.4720459  l6.1210938-3.4727173V77.3566895z M19.121582,75.6169434l8.375,4.7510986v6.9152222L13.0266724,79.074646L19.121582,75.6169434z   M28.496582,59.6601562l8.3754883,4.7509766v9.4736328l-8.3754883,4.7509766l-8.375-4.7509766v-9.4736328L28.496582,59.6601562z   M29.496582,80.368042l8.3752441-4.7512207l6.0946655,3.4577637L29.496582,87.2832642V80.368042z M37.8718262,62.6790771  l-8.3752441-4.7512207v-6.9152222l14.4699097,8.2086792L37.8718262,62.6790771z M27.496582,57.9278564l-8.375,4.7510986  l-6.0949097-3.4577026l14.4699097-8.2086182V57.9278564z M18.121582,64.4119873v9.4719238L12,77.3567505V60.9391479  L18.121582,64.4119873z"></path><path d="M89.9785156,59.0606689c-0.0186157-0.112854-0.0507202-0.2214966-0.1049805-0.3201904  c-0.0021362-0.0038452-0.00177-0.0081787-0.0039062-0.0119629c-0.0005493-0.0009766-0.0015259-0.0014648-0.0020752-0.0024414  c-0.0584106-0.102417-0.1392822-0.1893311-0.2310181-0.2660522c-0.0227051-0.0189819-0.0450439-0.0357056-0.0691528-0.0524902  c-0.0254517-0.0177612-0.0464478-0.0404663-0.0737305-0.0559692L72.503418,48.7130127V23.0576172  c3.1479492-0.4824219,5.5668945-3.2099609,5.5668945-6.4912109C78.0703125,12.9453125,75.1245117,10,71.503418,10  s-6.5668945,2.9453125-6.5668945,6.5664062c0,0.5527344,0.4477539,1,1,1s1-0.4472656,1-1  C66.9365234,14.0488281,68.9853516,12,71.503418,12s4.5668945,2.0488281,4.5668945,4.5664062  c0,2.5185547-2.0488281,4.5673828-4.5668945,4.5673828c-0.5522461,0-1,0.4472656-1,1v26.5792236l-16.9902344,9.6385498  c-0.0266724,0.0151367-0.0470581,0.0373535-0.0719604,0.0546265c-0.0255737,0.0177002-0.0491333,0.0352783-0.0731201,0.055481  c-0.0907593,0.076355-0.1707764,0.1627808-0.2287598,0.2644043c-0.0005493,0.0009766-0.0015869,0.0014648-0.0021362,0.0024414  c-0.0021362,0.0037842-0.00177,0.0081177-0.0039062,0.0119629c-0.0542603,0.0986938-0.0863647,0.2073364-0.1049805,0.3201904  c-0.0048828,0.029541-0.0094604,0.057373-0.0115967,0.0869751c-0.0018921,0.0250244-0.0098877,0.0487061-0.0098877,0.0740356  v19.8525391c0,0.0253296,0.0079956,0.0490112,0.0098877,0.0740356c0.0021362,0.0296021,0.0067139,0.0574341,0.0115967,0.0869751  c0.0186157,0.112854,0.0507202,0.2214966,0.1049805,0.3201904c0.0021362,0.0038452,0.00177,0.0081787,0.0039062,0.0119629  c0.0006714,0.0012207,0.00177,0.0020142,0.0024414,0.0031738c0.0769653,0.1346436,0.1887207,0.2468262,0.3216553,0.3344116  c0.0174561,0.0114136,0.0319214,0.0276489,0.0499268,0.0379028c0.0007324,0.0004272,0.0012207,0.0010376,0.0019531,0.0014648  l17.496582,9.9257812c0.022644,0.0128174,0.0476685,0.0178833,0.0709839,0.0288086  c0.0255127,0.012085,0.0507202,0.0214844,0.0773926,0.0313721C71.2702026,89.9716797,71.3856201,90,71.503418,90  s0.2332153-0.0283203,0.3452759-0.0697021c0.0266724-0.0098877,0.0518799-0.0192871,0.0773926-0.0313721  c0.0233154-0.0109253,0.0483398-0.0159912,0.0709839-0.0288086l17.496582-9.9257812  c0.0007324-0.0004272,0.0012207-0.0010376,0.0019531-0.0014648c0.0180054-0.0102539,0.0324707-0.0264893,0.0499268-0.0379028  c0.1329346-0.0875854,0.2446899-0.1997681,0.3216553-0.3344116c0.0006714-0.0011597,0.00177-0.0019531,0.0024414-0.0031738  c0.0021362-0.0037842,0.00177-0.0081177,0.0039062-0.0119629c0.0542603-0.0986938,0.0863647-0.2073364,0.1049805-0.3201904  c0.0048828-0.029541,0.0094604-0.057373,0.0115967-0.0869751C89.9920044,79.12323,90,79.0995483,90,79.0742188V59.2216797  c0-0.0253296-0.0079956-0.0490112-0.0098877-0.0740356C89.9879761,59.118042,89.9833984,59.09021,89.9785156,59.0606689z   M55.0068359,60.939209l6.1210938,3.4727173v9.4720459l-6.1210938,3.4727173V60.939209z M80.8786011,62.6790771  l-8.3751831-4.7509155v-6.9155273l14.4699097,8.2086792L80.8786011,62.6790771z M71.503418,78.6357422l-8.3754883-4.7509766  v-9.4736328l8.3754883-4.7509766l8.3754883,4.7509766v9.4736328L71.503418,78.6357422z M70.503418,57.9281616l-8.3751831,4.7509155  l-6.0947266-3.4577637l14.4699097-8.2086792V57.9281616z M62.1282349,75.6168213l8.3751831,4.7509155v6.9155273  L56.0335083,79.074585L62.1282349,75.6168213z M72.503418,80.3677368l8.3751831-4.7509155l6.0947266,3.4577637L72.503418,87.2832642  V80.3677368z M81.8789062,73.8839722v-9.4720459L88,60.939209v16.4174805L81.8789062,73.8839722z"></path></svg>