<?xml version="1.0" encoding="utf-8"?>
<!-- Generator: Adobe Illustrator 25.0.1, SVG Export Plug-In . SVG Version: 6.00 Build 0)  -->
<svg version="1.1" id="Layer_1" xmlns="http://www.w3.org/2000/svg" xmlns:xlink="http://www.w3.org/1999/xlink" x="0px" y="0px"
	 viewBox="0 0 16 16" style="enable-background:new 0 0 16 16;" xml:space="preserve">
<path d="M4.5,12.9c1.8,1.6,3.4,2.5,3.4,2.5c0,0,0.1,0,0.1,0s0.1,0,0.1,0c0,0,1.7-1,3.4-2.5c1.6-1.4,3.7-3.7,4.3-6.3
	c0.7-2.9-0.9-5-2.7-5.8C11.2,0.1,9.2,0.7,8,2.6C6.7,0.7,4.8,0.1,2.9,0.8C1.1,1.6-0.5,3.7,0.2,6.6C0.8,9.2,2.8,11.5,4.5,12.9z M3,1.2
	C3.5,1,4,0.9,4.4,0.9c1.5,0,2.7,1,3.4,2.1c0.1,0.1,0.3,0.1,0.3,0C9,1.6,10.8,0.3,13,1.2c1.6,0.7,3.1,2.6,2.5,5.3
	c-1,4.5-6.6,8-7.5,8.5c-0.8-0.5-6.4-4-7.5-8.5C-0.1,3.8,1.4,1.9,3,1.2z"/>
</svg>
