<svg height='100px' width='100%'  fill="#000000" xmlns="http://www.w3.org/2000/svg" xmlns:xlink="http://www.w3.org/1999/xlink" version="1.1" x="0px" y="0px" viewBox="0 0 100 100" style="enable-background:new 0 0 100 100;" xml:space="preserve"><path d="M32.305,74.659c8.802,7.741,17.023,12.477,17.105,12.524c0.154,0.088,0.325,0.132,0.497,0.132s0.343-0.044,0.497-0.132  c0.082-0.047,8.303-4.783,17.104-12.523c8.164-7.181,18.529-18.502,21.54-31.658C92.389,28.4,84.364,17.857,75.495,14.24  c-9.461-3.857-19.353-0.481-25.588,8.596c-6.238-9.077-16.133-12.453-25.589-8.596C15.449,17.857,7.425,28.4,10.767,43.001  C13.776,56.156,24.141,67.478,32.305,74.659z M25.073,16.092c2.459-1.003,4.813-1.443,7.035-1.443  c7.601,0,13.644,5.152,16.947,10.546c0.363,0.593,1.341,0.593,1.706,0c4.268-6.97,13.109-13.537,23.979-9.103  c8.112,3.308,15.439,13,12.359,26.463c-5.166,22.57-33.103,40.134-37.191,42.597c-4.088-2.462-32.025-20.014-37.191-42.597  C9.636,29.092,16.962,19.4,25.073,16.092z"></path></svg>