<svg height='100px' width='100px'  fill="#000000" xmlns="http://www.w3.org/2000/svg" xmlns:xlink="http://www.w3.org/1999/xlink" version="1.1" x="0px" y="0px" viewBox="0 0 100 100" style="enable-background:new 0 0 100 100;" xml:space="preserve"><path d="M20.9907227,21.9541016c-0.5522461,0-1,0.4477539-1,1v15.8007812c0,0.5522461,0.4477539,1,1,1s1-0.4477539,1-1V22.9541016  C21.9907227,22.4018555,21.5429688,21.9541016,20.9907227,21.9541016z"></path><path d="M27.512207,42.9443359c0.5522461,0,1-0.4477539,1-1V19.7646484c0-0.5522461-0.4477539-1-1-1s-1,0.4477539-1,1v22.1796875  C26.512207,42.496582,26.9599609,42.9443359,27.512207,42.9443359z"></path><path d="M34.0336914,42.9443359c0.5522461,0,1-0.4477539,1-1V19.7646484c0-0.5522461-0.4477539-1-1-1s-1,0.4477539-1,1v22.1796875  C33.0336914,42.496582,33.4814453,42.9443359,34.0336914,42.9443359z"></path><path d="M40.5551758,21.9541016c-0.5522461,0-1,0.4477539-1,1v15.8007812c0,0.5522461,0.4477539,1,1,1s1-0.4477539,1-1V22.9541016  C41.5551758,22.4018555,41.1074219,21.9541016,40.5551758,21.9541016z"></path><path d="M89.0014648,9.9873047c-0.0009766,0-0.0024414,0-0.0039062,0c-0.4199219,0-8.9726562,0.0952148-16.7163086,7.3530273  l-36.324707-6.6723633c-1.1254883-0.2910156-2.1547852-0.4799805-3.0644531-0.565918l-0.1147461-0.0209961  c-0.0883789-0.015625-0.1762695-0.0200195-0.2612305-0.0117188c-0.6376953-0.0546875-1.2094727-0.081543-1.7431641-0.081543  C19.3188477,9.987793,10,19.3486328,10,30.8544922c0,6.7841797,3.2670898,13.1088867,8.765625,17.0263672l-0.0830078,24.1928711  c0,3.9736328,2.7290039,7.3144531,6.4130859,8.2805786l0.9482422,6.9821167C26.2495117,88.8549805,27.5605469,90,29.0932617,90  h3.359375c1.5317383,0,2.8427734-1.1450195,3.0493164-2.6630859l0.9420166-6.9370117  c3.7738037-0.9035645,6.59021-4.2888184,6.59021-8.3261719v-9.9750977c0-8.0664062,5.4951172-14.9399414,13.3637695-16.715332  l15.8818359-3.5834961c6.9375,6.8808594,16.2802734,7.3139648,16.6821289,7.3295898  c0.2675781,0.0126953,0.5356445-0.0908203,0.7314453-0.2792969S90,48.4018555,90,48.1298828V10.9873047  C90,10.4355469,89.5532227,9.9882812,89.0014648,9.9873047z M32.4526367,88h-3.359375  c-0.5366211,0-0.9956055-0.4008789-1.0678711-0.9326172l-0.8730469-6.4290771  c0.0415649,0.0006104,0.0818481,0.0062256,0.1235352,0.0062256h7.1168213l-0.8721924,6.4228516  C33.4482422,87.5991211,32.9887695,88,32.4526367,88z M55.9575195,43.4321289  c-8.7866211,1.9829102-14.9233398,9.6586914-14.9233398,18.6665039v9.9750977c0,3.6230469-2.9575195,6.5708008-6.5927734,6.5708008  h-7.1655273c-3.6357422,0-6.5932617-2.9477539-6.5932617-6.5673828l0.0849609-24.7148438  c0.0009766-0.3334961-0.1640625-0.6459961-0.440918-0.8325195C15.112793,43.0131836,12,37.152832,12,30.8544922  c0-10.4033203,8.4213867-18.8666992,18.7729492-18.8666992c0.5253906,0,1.0742188,0.027832,1.7270508,0.0878906  c0.0361328,0.003418,0.0703125,0.0073242,0.105957,0.0039062l0.0083008,0.0014648  c0.8876953,0.0869141,1.8173828,0.2583008,2.9111328,0.5385742l36.0161133,6.618042v20.6781006L55.9575195,43.4321289z M88,47.03125  c-2.5646362-0.3216553-9.3511963-1.644165-14.4584961-6.8101807V18.9109497  C79.2603149,13.4954834,85.5939331,12.3118286,88,12.0571289V47.03125z"></path><path d="M30.7729492,53.440918c-3.2617188,0-5.9150391,2.6533203-5.9150391,5.9145508v4.7939453c0,0.5522461,0.4477539,1,1,1  h9.8300781c0.5522461,0,1-0.4477539,1-1v-4.7939453C36.6879883,56.0942383,34.034668,53.440918,30.7729492,53.440918z   M30.7729492,55.440918c2.1586914,0,3.9150391,1.7558594,3.9150391,3.9145508v3.7939453h-7.8300781v-3.7939453  C26.8579102,57.1967773,28.6142578,55.440918,30.7729492,55.440918z"></path></svg>