<svg height='100px' width='100px'  fill="#000000" xmlns="http://www.w3.org/2000/svg" xmlns:xlink="http://www.w3.org/1999/xlink" version="1.1" x="0px" y="0px" viewBox="0 0 100 100" style="enable-background:new 0 0 100 100;" xml:space="preserve"><path d="M79.8398438,38.7900391C79.6552734,38.5048828,79.3388672,38.3330078,79,38.3330078h-2.9277344v-3.3183594  c0-1.7393799-1.1464844-3.2010498-2.7175293-3.7128906C72.9116211,19.4857178,62.6079102,10,49.9980469,10  c-12.6103516,0-22.9143066,9.4863281-23.3566895,21.3029785c-1.5690918,0.5130615-2.713623,1.9737549-2.713623,3.7116699v3.3183594  H21c-0.3388672,0-0.6552734,0.171875-0.8398438,0.4570312c-2.7509766,4.2539062-4.7353516,8.8925781-5.8974609,13.7890625  C11.4335938,64.4990234,10,76.7529297,10,89c0,0.5527344,0.4472656,1,1,1h78c0.5527344,0,1-0.4472656,1-1  c0-12.2470703-1.4335938-24.5009766-4.2626953-36.421875C84.5751953,47.6826172,82.5908203,43.0439453,79.8398438,38.7900391z   M83.7919922,53.0400391c0.8195801,3.4554443,1.5058594,6.9416504,2.0872803,10.4453125H70.0410156V40.3330078h8.4111328  C80.9277344,44.2695312,82.7236328,48.5419922,83.7919922,53.0400391z M48.9980469,40.3330078v23.1523438H31.9550781V40.3330078  H48.9980469z M35.394043,31.3422241c0.4189453-7.2302856,6.7987061-12.9955444,14.6040039-12.9955444  c7.8056641,0,14.185791,5.7659302,14.6040039,12.9967651c-1.5021973,0.5500488-2.5834961,1.9810791-2.5834961,3.6712036v3.3183594  H37.9814453v-3.3183594C37.9814453,33.3230591,36.8983154,31.8911743,35.394043,31.3422241z M50.9980469,40.3330078h17.0429688  v23.1523438H50.9980469V40.3330078z M74.0722656,35.0146484v3.3183594H64.0185547v-3.3183594  c0-1.0595703,0.8623047-1.921875,1.921875-1.921875h6.2099609C73.2099609,33.0927734,74.0722656,33.9550781,74.0722656,35.0146484z   M49.9980469,12c11.4289551,0,20.7641602,8.4794922,21.3239746,19.0927734h-4.7330322  c-0.5496826-8.2161865-7.7700195-14.7460938-16.5909424-14.7460938s-16.0412598,6.5299072-16.5909424,14.7460938h-4.7330322  C29.2338867,20.4794922,38.5690918,12,49.9980469,12z M25.9277344,35.0146484c0-1.0595703,0.8623047-1.921875,1.921875-1.921875  h6.2099609c1.0595703,0,1.921875,0.8623047,1.921875,1.921875v3.3183594H25.9277344V35.0146484z M16.2080078,53.0410156  c1.0683594-4.4990234,2.8642578-8.7714844,5.3398438-12.7080078h8.4072266v23.1523438H14.1208496  C14.7022705,59.9819946,15.3884277,56.4960938,16.2080078,53.0410156z M12.0029297,88  c0.0488281-7.5334473,0.6534424-15.0646973,1.7907715-22.5146484h72.4125977  C87.3436279,72.9355469,87.9482422,80.4665527,87.9970703,88H12.0029297z"></path></svg>