<svg height='100px' width='100%'  fill="#000000" xmlns="http://www.w3.org/2000/svg" xmlns:xlink="http://www.w3.org/1999/xlink" version="1.1" x="0px" y="0px" viewBox="0 0 100 100" style="enable-background:new 0 0 100 100;" xml:space="preserve"><style type="text/css">
	.st0{fill:none;stroke:#000000;stroke-width:2;stroke-linecap:round;stroke-linejoin:round;stroke-miterlimit:10;}
</style><path d="M50.7,14.6c-0.4-0.4-1-0.4-1.4,0L18.1,45.8c-0.3,0.3-0.4,0.7-0.2,1.1c0.2,0.4,0.5,0.6,0.9,0.6h6.4v38.7c0,0.6,0.4,1,1,1  h15.7h16.2h15.7c0.6,0,1-0.4,1-1V47.5h6.4c0.4,0,0.8-0.2,0.9-0.6c0.2-0.4,0.1-0.8-0.2-1.1L50.7,14.6z M42.9,85.2V60.4h14.2v24.8  H42.9z M73.9,45.5c-0.6,0-1,0.4-1,1v38.7H59.1V59.4c0-0.6-0.4-1-1-1H41.9c-0.6,0-1,0.4-1,1v25.8H27.1V46.5c0-0.6-0.4-1-1-1h-4.9  L50,16.7l28.8,28.8H73.9z"></path></svg>