<svg height='100px' width='100px'  fill="#000000" xmlns="http://www.w3.org/2000/svg" xmlns:xlink="http://www.w3.org/1999/xlink" version="1.1" x="0px" y="0px" viewBox="0 0 100 100" style="enable-background:new 0 0 100 100;" xml:space="preserve"><path d="M87.1992188,9.9995117H73.1376953c-1.6552734,0-3.0019531,1.3466797-3.0019531,3.0014648v7.1235352  c0,0.1074219,0.0175781,0.2138672,0.0507812,0.3154297c0.0976562,0.2924805,9.6083984,29.4272461-0.9580078,44.0771484  c-3.9990234,5.5439453-10.4648438,8.3549805-19.2177734,8.3549805c-8.7675781,0-15.2412109-2.8134766-19.2421875-8.362793  c-10.5566406-14.6420898-1.03125-43.7758789-0.9345703-44.0688477c0.0341797-0.1015625,0.0517578-0.2084961,0.0517578-0.315918  v-7.1235352c0-1.6547852-1.3466797-3.0014648-3.0009766-3.0014648h-14.0625c-1.5498047,0-2.8115234,1.2612305-2.8115234,2.8115234  v4.2021484c0,1.1655273,0.7011719,2.1928711,1.7871094,2.6181641l3.6591797,1.4321289  c-3.2939453,8.4931641-4.6630859,19.5170898-5.1923828,25.4638672c-0.3212891,3.6162109-0.2333984,6.8740234,0.2695312,9.9594727  c3.1679688,19.418457,19.7695312,33.5126953,39.4765625,33.5126953s36.3085938-14.0942383,39.4765625-33.5126953  c0.5029297-3.0854492,0.5908203-6.3432617,0.2695312-9.9594727c-0.5292969-5.9467773-1.8984375-16.9707031-5.1923828-25.4638672  l3.6591797-1.4321289c1.0859375-0.425293,1.7871094-1.4526367,1.7871094-2.6181641v-4.2021484  C90.0107422,11.2607422,88.7490234,9.9995117,87.1992188,9.9995117z M88.0107422,17.0131836  c0,0.3364258-0.2021484,0.6333008-0.515625,0.7558594l-4.5986328,1.7993164  c-0.25,0.0976562-0.4511719,0.2924805-0.5556641,0.5395508c-0.1054688,0.2475586-0.1064453,0.5268555-0.0039062,0.7749023  c3.4677734,8.3574219,4.8896484,19.7651367,5.4277344,25.8212891c0.3066406,3.4477539,0.2246094,6.5424805-0.2519531,9.4604492  c-3.0087891,18.4462891-18.7802734,31.8349609-37.5019531,31.8349609S15.5175781,74.6108398,12.5087891,56.1645508  c-0.4765625-2.9179688-0.5585938-6.0126953-0.2519531-9.4604492c0.5380859-6.0561523,1.9599609-17.4638672,5.4277344-25.8212891  c0.1025391-0.2480469,0.1015625-0.5273438-0.0039062-0.7749023C17.5761719,19.8608398,17.375,19.6660156,17.125,19.5683594  l-4.5986328-1.7993164c-0.3134766-0.1225586-0.515625-0.4194336-0.515625-0.7558594v-4.2021484  c0-0.4472656,0.3642578-0.8115234,0.8115234-0.8115234h14.0625c0.5517578,0,1.0009766,0.4492188,1.0009766,1.0014648v6.9633789  c-0.8505859,2.612793-9.5986328,30.6469727,1.2587891,45.7119141c4.3974609,6.1020508,11.4179688,9.1958008,20.8662109,9.1958008  c9.4326172,0,16.4433594-3.090332,20.8398438-9.1850586c10.8642578-15.0625,2.1328125-43.1113281,1.2851562-45.722168v-6.9638672  c0-0.5522461,0.4492188-1.0014648,1.0019531-1.0014648h14.0615234c0.4472656,0,0.8115234,0.3642578,0.8115234,0.8115234V17.0131836z  "></path><path d="M67.8359375,75.1601562c-0.7900391,0.5600586-1.6132812,1.0883789-2.4462891,1.5698242  c-0.4785156,0.2758789-0.6425781,0.8876953-0.3662109,1.3657227c0.1855469,0.3208008,0.5214844,0.5,0.8671875,0.5  c0.1699219,0,0.3417969-0.0429688,0.4990234-0.1342773c0.8867188-0.512207,1.7626953-1.0737305,2.6025391-1.6694336  c0.4511719-0.3193359,0.5566406-0.9438477,0.2373047-1.3945312C68.9111328,74.9467773,68.2871094,74.8413086,67.8359375,75.1601562z  "></path><path d="M75.9853516,66.7490234c-1.0849609,1.6323242-2.3251953,3.1738281-3.6884766,4.5820312  c-0.3837891,0.3964844-0.3740234,1.0297852,0.0234375,1.4140625c0.1943359,0.1875,0.4443359,0.28125,0.6953125,0.28125  c0.2617188,0,0.5224609-0.1020508,0.71875-0.3046875c1.4472656-1.4951172,2.7646484-3.1323242,3.9169922-4.8662109  c0.3056641-0.4599609,0.1806641-1.0805664-0.2792969-1.3862305C76.9101562,66.1635742,76.2900391,66.2871094,75.9853516,66.7490234z  "></path><path d="M80.0185547,31.1474609c-0.5400391,0.1176758-0.8818359,0.6503906-0.7646484,1.1899414  c0.4023438,1.8452148,0.765625,3.8339844,1.0820312,5.9121094c0.0751953,0.4951172,0.5009766,0.8496094,0.9873047,0.8496094  c0.0498047,0,0.1005859-0.003418,0.1513672-0.0112305c0.5458984-0.0830078,0.9208984-0.5927734,0.8378906-1.1391602  c-0.3212891-2.1196289-0.6933594-4.1503906-1.1035156-6.0371094C81.0908203,31.3720703,80.5566406,31.0273438,80.0185547,31.1474609  z"></path><path d="M81.0839844,44.2265625c0.0566406,0.5639648,0.1044922,1.0859375,0.1455078,1.5600586  c0.0986328,1.1401367,0.1494141,2.2568359,0.1494141,3.3217773c0.0009766,0.3500977-0.0048828,0.699707-0.015625,1.0493164  c-0.0185547,0.5517578,0.4150391,1.0136719,0.9667969,1.0317383c0.0107422,0.0004883,0.0214844,0.0004883,0.0332031,0.0004883  c0.5371094,0,0.9804688-0.4267578,0.9980469-0.9677734c0.0126953-0.3730469,0.0185547-0.7460938,0.0175781-1.1166992  c0-1.1196289-0.0527344-2.2949219-0.1572266-3.4912109c-0.0410156-0.4814453-0.0908203-1.012207-0.1474609-1.5859375  c-0.0546875-0.5493164-0.5498047-0.9467773-1.09375-0.8959961C81.4306641,43.1870117,81.0292969,43.6767578,81.0839844,44.2265625z"></path><path d="M81.8037109,55.2275391c-0.5371094-0.1235352-1.0751953,0.2133789-1.1972656,0.7524414  c-0.4365234,1.9116211-1.0498047,3.7939453-1.8212891,5.5947266c-0.2177734,0.5078125,0.0175781,1.0957031,0.5253906,1.3129883  c0.1279297,0.0551758,0.2617188,0.081543,0.3935547,0.081543c0.3876953,0,0.7568359-0.2275391,0.9189453-0.6064453  c0.8193359-1.9111328,1.4697266-3.9086914,1.9326172-5.9375C82.6787109,55.8867188,82.3417969,55.3505859,81.8037109,55.2275391z"></path><path d="M79.6210938,25.9287109c-0.3291016-1.0205078-0.6787109-1.9916992-1.0410156-2.8867188  c-0.2070312-0.512207-0.7900391-0.7583008-1.3017578-0.5522461c-0.5117188,0.2070312-0.7587891,0.7900391-0.5517578,1.3022461  c0.34375,0.8496094,0.6767578,1.7749023,0.9902344,2.75c0.1367188,0.4238281,0.5292969,0.6938477,0.9521484,0.6938477  c0.1015625,0,0.2050781-0.015625,0.3066406-0.0488281C79.5009766,27.0180664,79.7900391,26.4545898,79.6210938,25.9287109z"></path><path d="M23.2949219,23.7919922c0.2070312-0.512207-0.0400391-1.0952148-0.5517578-1.3022461  c-0.5126953-0.2055664-1.0947266,0.0405273-1.3017578,0.5522461c-0.3623047,0.8950195-0.7119141,1.8662109-1.0410156,2.8867188  c-0.1689453,0.5258789,0.1201172,1.0893555,0.6455078,1.2583008c0.1025391,0.0332031,0.2050781,0.0488281,0.3066406,0.0488281  c0.4228516,0,0.8154297-0.2700195,0.9521484-0.6938477C22.6181641,25.5668945,22.9511719,24.6416016,23.2949219,23.7919922z"></path><path d="M24.0234375,66.7319336c-0.3046875-0.4599609-0.9257812-0.5864258-1.3857422-0.2797852  c-0.4609375,0.3051758-0.5859375,0.9262695-0.2802734,1.3862305c1.1523438,1.7348633,2.46875,3.3730469,3.9140625,4.8681641  c0.1962891,0.203125,0.4570312,0.3051758,0.71875,0.3051758c0.25,0,0.5009766-0.0932617,0.6953125-0.2807617  c0.3964844-0.3837891,0.4072266-1.0170898,0.0234375-1.4140625C26.3486328,69.9086914,25.1083984,68.3662109,24.0234375,66.7319336z  "></path><path d="M18.5507812,39.0654297c0.0507812,0.0078125,0.1015625,0.0112305,0.1513672,0.0112305  c0.4863281,0,0.9121094-0.3544922,0.9873047-0.8491211c0.3183594-2.0874023,0.6826172-4.0761719,1.0830078-5.9111328  c0.1181641-0.5395508-0.2236328-1.0727539-0.7636719-1.1904297c-0.5361328-0.1162109-1.0722656,0.2241211-1.1894531,0.7636719  c-0.4101562,1.8764648-0.7822266,3.9072266-1.1064453,6.0361328C17.6289062,38.472168,18.0048828,38.9819336,18.5507812,39.0654297z  "></path><path d="M17.6884766,51.1655273c0.5517578-0.0166016,0.9863281-0.4780273,0.9697266-1.0297852  c-0.0107422-0.3432617-0.015625-0.6865234-0.015625-1.0297852c0-1.0625,0.0507812-2.1791992,0.1494141-3.3198242  c0.0419922-0.4794922,0.0908203-1.0097656,0.1484375-1.5830078c0.0546875-0.5493164-0.3466797-1.0395508-0.8955078-1.0942383  c-0.5546875-0.0522461-1.0390625,0.3461914-1.0947266,0.8959961c-0.0576172,0.5820312-0.1083984,1.1210938-0.1503906,1.6079102  c-0.1044922,1.1977539-0.1572266,2.3730469-0.1572266,3.4931641c0,0.3637695,0.0048828,0.7275391,0.015625,1.090332  c0.0166016,0.5419922,0.4609375,0.9697266,0.9990234,0.9697266C17.6679688,51.1660156,17.6787109,51.1660156,17.6884766,51.1655273z  "></path><path d="M19.4111328,55.9580078c-0.1230469-0.5385742-0.6611328-0.878418-1.1962891-0.7529297  c-0.5390625,0.1225586-0.8759766,0.6586914-0.7529297,1.1972656c0.4628906,2.0322266,1.1113281,4.0307617,1.9287109,5.9394531  c0.1621094,0.3793945,0.53125,0.6069336,0.9189453,0.6069336c0.1318359,0,0.265625-0.0263672,0.3935547-0.0810547  c0.5078125-0.2172852,0.7431641-0.8051758,0.5253906-1.3129883C20.4589844,59.7563477,19.8476562,57.8735352,19.4111328,55.9580078z  "></path><path d="M34.6328125,76.7299805c-0.8378906-0.484375-1.6611328-1.0126953-2.4472656-1.5698242  c-0.4511719-0.3188477-1.0751953-0.2133789-1.3935547,0.2373047c-0.3193359,0.4506836-0.2138672,1.0751953,0.2373047,1.3945312  c0.8359375,0.5922852,1.7109375,1.1542969,2.6015625,1.6694336c0.1582031,0.0913086,0.3300781,0.1342773,0.5,0.1342773  c0.3457031,0,0.6816406-0.1787109,0.8662109-0.4995117C35.2744141,77.6181641,35.1103516,77.0063477,34.6328125,76.7299805z"></path></svg>