<svg height='100px' width='100px'  fill="#000000" xmlns="http://www.w3.org/2000/svg" xmlns:xlink="http://www.w3.org/1999/xlink" version="1.1" x="0px" y="0px" viewBox="0 0 100 100" style="enable-background:new 0 0 100 100;" xml:space="preserve"><path d="M89.9995117,31.8969727c0.0097656-0.2709961-0.0913086-0.534668-0.2797852-0.7299805S89.2714844,30.8613281,89,30.8613281  H76.1575928C74.6951294,19.020752,64.6650391,10,52.5317383,10c-10.7247925,0-19.8087158,7.0476074-22.7821045,16.8349609  h-14.053833C12.5551758,26.8349609,10,29.3901367,10,32.5307617v19.3828125c0,2.378418,0.9990234,4.6708984,2.7416992,6.2905273  l12.7112427,11.8120117l-0.7405396,8.3959961c-0.0009766,0.0108643,0.0040894,0.0203857,0.003479,0.031189  c-1.6565552,0.3925781-2.8965454,1.8751221-2.8965454,3.6499634v4.1464844C21.8193359,88.3129883,23.5063477,90,25.5795898,90  h54.1464844c2.0732422,0,3.7602539-1.6870117,3.7602539-3.7602539v-4.1464844c0-2.0732422-1.6870117-3.7597656-3.7602539-3.7597656  h-0.3796997L77.7963257,54.96521C89.255188,48.8482666,89.9743042,32.5919189,89.9995117,31.8969727z M77.6477661,52.7254028  l-1.317627-19.8640747h11.5912476C87.5797119,36.350769,85.8348389,47.7052002,77.6477661,52.7254028z M52.5317383,12  c8.2757568,0,15.4688721,4.5915527,19.1659546,11.4165039H33.3622437C37.0575562,16.5950317,44.2528687,12,52.5317383,12z   M26.5021362,58.1210327L19.0625,51.2080078c-0.1289062-0.1201172-0.203125-0.2900391-0.203125-0.4667969l-0.043457-14.7250977  h9.6359863L26.5021362,58.1210327z M14.1030273,56.7392578C12.7666016,55.4970703,12,53.737793,12,51.9135742V32.5307617  c0-2.0380859,1.6577148-3.6958008,3.6958008-3.6958008H29.239563c-0.2652588,1.258667-0.437561,2.5528564-0.4963989,3.8789062  l-0.1148682,1.3022461H18.815918c-1.0786133,0-1.956543,0.8774414-1.956543,1.9560547v14.769043  c0,0.7304688,0.3066406,1.4345703,0.8417969,1.9316406l8.5784302,7.9712524l-0.604126,6.848938L14.1030273,56.7392578z   M81.4863281,82.0932617v4.1464844C81.4863281,87.2104492,80.6967773,88,79.7260742,88H25.5795898  c-0.9707031,0-1.7602539-0.7895508-1.7602539-1.7602539v-4.1464844c0-0.9702148,0.7895508-1.7597656,1.7602539-1.7597656h54.1464844  C80.6967773,80.3334961,81.4863281,81.1230469,81.4863281,82.0932617z M26.7270508,78.3334961l4.0112305-45.4873047  c0.1170654-2.6341553,0.7149658-5.12854,1.6722412-7.4296875h40.2389526  c0.960022,2.3068848,1.5596313,4.8086548,1.6771851,7.4516602l3.0148315,45.465332H26.7270508z"></path><path d="M51.9584961,30.8613281c-4.0268555,0-7.3027344,3.2758789-7.3027344,7.3027344v27.421875  c0,4.0268555,3.2758789,7.3027344,7.3027344,7.3027344c4.0263672,0,7.3022461-3.2758789,7.3022461-7.3027344v-27.421875  C59.2607422,34.137207,55.9848633,30.8613281,51.9584961,30.8613281z M57.2607422,65.5859375  c0,2.9238281-2.378418,5.3027344-5.3022461,5.3027344s-5.3027344-2.3789062-5.3027344-5.3027344v-27.421875  c0-2.9238281,2.3789062-5.3027344,5.3027344-5.3027344s5.3022461,2.3789062,5.3022461,5.3027344V65.5859375z"></path><path d="M53.4125977,38.0356445h-2.9086914c-0.5522461,0-1,0.4477539-1,1s0.4477539,1,1,1h2.9086914c0.5522461,0,1-0.4477539,1-1  S53.9648438,38.0356445,53.4125977,38.0356445z"></path><path d="M53.4125977,44.5454102h-2.9086914c-0.5522461,0-1,0.4477539-1,1s0.4477539,1,1,1h2.9086914c0.5522461,0,1-0.4477539,1-1  S53.9648438,44.5454102,53.4125977,44.5454102z"></path><path d="M53.4125977,51.0546875h-2.9086914c-0.5522461,0-1,0.4477539-1,1s0.4477539,1,1,1h2.9086914c0.5522461,0,1-0.4477539,1-1  S53.9648438,51.0546875,53.4125977,51.0546875z"></path><path d="M53.4125977,57.5644531h-2.9086914c-0.5522461,0-1,0.4477539-1,1s0.4477539,1,1,1h2.9086914c0.5522461,0,1-0.4477539,1-1  S53.9648438,57.5644531,53.4125977,57.5644531z"></path><path d="M53.4125977,64.0742188h-2.9086914c-0.5522461,0-1,0.4477539-1,1s0.4477539,1,1,1h2.9086914c0.5522461,0,1-0.4477539,1-1  S53.9648438,64.0742188,53.4125977,64.0742188z"></path></svg>