<svg height='100px' width='100px'  fill="#000000" xmlns="http://www.w3.org/2000/svg" xmlns:xlink="http://www.w3.org/1999/xlink" version="1.1" x="0px" y="0px" viewBox="0 0 100 100" style="enable-background:new 0 0 100 100;" xml:space="preserve"><path d="M89.7070312,10.309082c-0.390625-0.390625-1.0234375-0.390625-1.4140625,0l-1.8339233,1.8339844l-32.1821899-0.0766602  c-0.0040894,0.0002441-0.0076294,0.0021362-0.0117188,0.0024414l-1.5585938-1.5585938  c-0.390625-0.390625-1.0234375-0.390625-1.4140625,0s-0.390625,1.0234375,0,1.4140625l1.8105469,1.8105469l-8.9806519,40.7452393  l-3.5603638,3.5604248c-1.5917969,1.5913086-3.7075195,2.4677734-5.9580078,2.4677734  c-2.2509766,0-4.3666992-0.8764648-5.9584961-2.4682617c-4.0654297-4.0654297-10.6801758-4.0654297-14.7456055,0  l-0.784668,0.7856445c-4.0654297,4.0649414-4.0654297,10.6796875,0,14.7446289l1.1308594,1.1313477  c3.2851562,3.2856445,3.2851562,8.6308594,0,11.9165039l-1.6743164,1.6748047c-0.390625,0.390625-0.390625,1.0239258,0,1.4140625  C12.7670898,89.9023438,13.0229492,90,13.2788086,90s0.5117188-0.0976562,0.7070312-0.2929688l1.6743164-1.6748047  c4.0654297-4.0649414,4.0654297-10.6796875,0-14.7446289L14.5292969,72.15625  c-3.2851562-3.2856445-3.2851562-8.6308594,0.0004883-11.9165039l0.784668-0.7856445  c1.5917969-1.5913086,3.7075195-2.4677734,5.9584961-2.4677734s4.3666992,0.8764648,5.9584961,2.4682617  c4.0654297,4.0654297,10.6791992,4.0664062,14.7446289,0l3.5603027-3.5603638l40.744873-8.9811401l1.8105469,1.8105469  c0.1953125,0.1953125,0.4511719,0.2929688,0.7070312,0.2929688s0.5117188-0.0976562,0.7070312-0.2929688  c0.390625-0.390625,0.390625-1.0234375,0-1.4140625l-1.5582275-1.5582275  c0.000061-0.0042114,0.0020752-0.0078735,0.0020752-0.012085l-0.0766602-32.1821289l1.8339844-1.8339844  C90.0976562,11.3325195,90.0976562,10.699707,89.7070312,10.309082z M84.4638672,14.1382446L70.399231,28.2029419  L56.2674561,14.071167L84.4638672,14.1382446z M54.78125,15.4130859l14.2039795,14.2039795L46.7494507,51.8530273  L54.78125,15.4130859z M48.1634521,53.2671509L70.399292,31.0311279l14.2037354,14.2037354L48.1634521,53.2671509z   M85.9449463,43.7486572L71.8132935,29.6170044l14.0645752-14.0646362L85.9449463,43.7486572z"></path></svg>