<svg height='100px' width='100px'  fill="#000000" xmlns="http://www.w3.org/2000/svg" xmlns:xlink="http://www.w3.org/1999/xlink" version="1.1" x="0px" y="0px" viewBox="0 0 100 100" style="enable-background:new 0 0 100 100;" xml:space="preserve"><path d="M10.9790039,90h29.0625c0.5522461,0,1-0.4477539,1-1v-3.434082h4.9067993  C46.4194946,88.0858154,48.6315308,90,51.2861328,90h33.2587891c2.996582,0,5.434082-2.4375,5.434082-5.434082  s-2.4375-5.434082-5.434082-5.434082H51.2861328c-2.6546021,0-4.8666382,1.9141846-5.3378296,4.434082h-4.9067993V68.402832  c0-4.0029907-1.5352173-7.6450195-4.03125-10.4018555l4.8457642-13.1835327l11.7963257,11.7963257  c0.6572266,0.6572266,1.5307617,1.019043,2.4599609,1.019043c0.4951172,0,0.9711304-0.109436,1.4101562-0.3046875  l5.1132812,5.1132812c0.1953125,0.1953125,0.4511719,0.2929688,0.7070312,0.2929688s0.5117188-0.0976562,0.7070312-0.2929688  l0.8425293-0.8425293l1.3566895,1.3566895c0.9150391,0.9155273,2.1171875,1.3730469,3.3198242,1.3730469  c1.2021484,0,2.4042969-0.4575195,3.3193359-1.3730469l2.7832031-2.7832031  c0.8867188-0.8867188,1.375-2.0654297,1.3754883-3.3193359c0-1.2543945-0.4887695-2.4331055-1.3754883-3.3198242  l-1.3563232-1.3566284l0.8426514-0.8425903c0.1875-0.1875,0.2929688-0.4418945,0.2929688-0.7070312  s-0.1054688-0.5195312-0.2929688-0.7070312l-5.1135864-5.1135864c0.1951294-0.4389648,0.3045044-0.914856,0.3045044-1.4098511  c0-0.9291992-0.3618164-1.8027344-1.019043-2.4599609L41.2543945,12.8613281  c-1.2922363-1.2927246-3.5230713-1.3067017-4.8460693-0.0595703l-1.6627197-1.6630859  c-1.515625-1.515625-3.9829102-1.515625-5.4985352,0L23.8544922,16.53125c-1.515625,1.5161133-1.515625,3.9824219,0,5.4985352  l1.6624756,1.6621094c-1.2884521,1.3612061-1.2733154,3.5131836,0.0601807,4.8466797l7.0407104,7.0407104L13.7942505,58.2385254  c-0.1612549,0.1855469-0.3184204,0.3735962-0.4708252,0.5667725l-0.288269,0.3470459  c-0.0344238,0.0414429-0.046814,0.0915527-0.0734863,0.1364746c-1.8670654,2.5633545-2.982666,5.7072144-2.982666,9.1140137V89  C9.9790039,89.5522461,10.4267578,90,10.9790039,90z M51.2861328,81.1318359h33.2587891  c1.8935547,0,3.434082,1.5405273,3.434082,3.434082S86.4384766,88,84.5449219,88H51.2861328  c-1.8935547,0-3.434082-1.5405273-3.434082-3.434082S49.3925781,81.1318359,51.2861328,81.1318359z M74.2573242,54.9472656  c0.5092773,0.5092773,0.7895508,1.1855469,0.7895508,1.9052734s-0.2807617,1.3964844-0.7895508,1.9057617l-2.7832031,2.7832031  c-1.0498047,1.0507812-2.7592773,1.0517578-3.8110352,0l-1.3566284-1.3566284l6.5945435-6.5942993L74.2573242,54.9472656z   M63.3427734,60.3203125l-4.2385254-4.2385254l9.6938477-9.6933594l4.2385254,4.2385254L63.3427734,60.3203125z   M25.2685547,17.9453125l5.3925781-5.3925781c0.7358398-0.7353516,1.9335938-0.7363281,2.6704102,0l1.6555786,1.6558838  l-8.0628662,8.0625l-1.6557007-1.6553955C24.5327148,19.8793945,24.5327148,18.6816406,25.2685547,17.9453125z   M26.9912109,25.0322266l10.7578125-10.7568359c0.2788086-0.2792969,0.6503906-0.4331055,1.0454102-0.4331055  s0.7666016,0.1538086,1.0458984,0.4331055l28.0751953,28.0751953c0.2792969,0.2792969,0.4331055,0.6508789,0.4331055,1.0458984  s-0.1538086,0.7666016-0.4331055,1.0458984L57.1582031,55.199707c0,0,0,0-0.0004883,0  c-0.5576172,0.5585938-1.5327148,0.5585938-2.0913086,0L26.9912109,27.1245117  C26.4145508,26.5478516,26.4145508,25.6088867,26.9912109,25.0322266z M40.2979736,43.2593994l-4.8572998,13.2149048  c-2.6943359-2.2468262-6.1561279-3.6027222-9.9304199-3.6027222c-1.9431152,0-3.7963867,0.3745117-5.5123901,1.0291138  l14.0402222-16.9011841L40.2979736,43.2593994z M11.9790039,68.402832c0-3.1355591,1.0818481-6.0177002,2.8787842-8.3146973  l0.4899902-0.5898438c2.4819946-2.8289185,6.1124268-4.626709,10.1624756-4.626709  c7.4609375,0,13.53125,6.0703125,13.53125,13.53125V88h-27.0625V68.402832z"></path><path d="M25.5102539,60.5249023c-3.4853516,0-6.3208008,2.8354492-6.3208008,6.3208008  c0,3.4848633,2.8354492,6.3203125,6.3208008,6.3203125s6.3208008-2.8354492,6.3208008-6.3203125  C31.8310547,63.3603516,28.9956055,60.5249023,25.5102539,60.5249023z M25.5102539,71.1660156  c-2.3823242,0-4.3208008-1.9379883-4.3208008-4.3203125s1.9384766-4.3208008,4.3208008-4.3208008  s4.3208008,1.9384766,4.3208008,4.3208008S27.8925781,71.1660156,25.5102539,71.1660156z"></path></svg>