
<svg height='100px' width='100px'  fill="#000000" xmlns="http://www.w3.org/2000/svg" xmlns:xlink="http://www.w3.org/1999/xlink" version="1.1" x="0px" y="0px" viewBox="0 0 100 100" style="enable-background:new 0 0 100 100;" xml:space="preserve">>
<path d="M10.5,90.4h78c0.6,0,1-0.4,1-1s-0.4-1-1-1h-35V66.9h26.3c0.6,0,1-0.4,1-1V19.1c0-0.6-0.4-1-1-1H53.6v-4
	c0-2.1-1.7-3.8-3.8-3.8h-0.5c-2.1,0-3.8,1.7-3.8,3.8v4H19.2c-0.6,0-1,0.4-1,1v46.8c0,0.6,0.4,1,1,1h26.3v21.5h-35c-0.6,0-1,0.4-1,1
	S10,90.4,10.5,90.4z M47.5,14.1c0-1,0.8-1.8,1.8-1.8h0.5c1,0,1.8,0.8,1.8,1.8v4h-4.1L47.5,14.1L47.5,14.1z M20.2,20.1h58.7v44.8
	H20.2V20.1z M47.5,66.9h4.1v21.5h-4.1C47.5,88.4,47.5,66.9,47.5,66.9z"/>
</svg>
