<svg height='100px' width='100px'  fill="#000000" xmlns="http://www.w3.org/2000/svg" xmlns:xlink="http://www.w3.org/1999/xlink" version="1.1" x="0px" y="0px" viewBox="0 0 100 100" style="enable-background:new 0 0 100 100;" xml:space="preserve"><path d="M59.1030273,19.2016602C59.1030273,14.1279297,55.0195312,10,50,10s-9.1030273,4.1279297-9.1030273,9.2016602  c0,5.0742188,4.0834961,9.2021484,9.1030273,9.2021484S59.1030273,24.2758789,59.1030273,19.2016602z M42.8969727,19.2016602  C42.8969727,15.2304688,46.0834961,12,50,12s7.1030273,3.2304688,7.1030273,7.2016602S53.9165039,26.4038086,50,26.4038086  S42.8969727,23.1728516,42.8969727,19.2016602z"></path><path d="M51,15.625c0-0.5522461-0.4477539-1-1-1c-2.4926758,0-4.5205078,2.0473633-4.5205078,4.5634766c0,0.5522461,0.4477539,1,1,1  s1-0.4477539,1-1C47.4794922,17.7749023,48.6103516,16.625,50,16.625C50.5522461,16.625,51,16.1772461,51,15.625z"></path><path d="M35.6904297,33.6762695c3.8378906-3.2597656,4.3408203-9.0712891,1.121582-12.9555664  c-1.5654297-1.8881836-3.7646484-3.0449219-6.1923828-3.2573242c-2.421875-0.2109375-4.7802734,0.5424805-6.6411133,2.1225586  c-3.8378906,3.2597656-4.3408203,9.0712891-1.121582,12.9555664c1.565918,1.8881836,3.7651367,3.0449219,6.1928711,3.2573242  c0.2675781,0.0234375,0.534668,0.034668,0.800293,0.034668C31.9863281,35.8334961,34.0351562,35.0820312,35.6904297,33.6762695z   M24.3969727,31.2651367c-2.5244141-3.0449219-2.1308594-7.6005859,0.8764648-10.1547852  c1.2900391-1.0957031,2.8862305-1.6816406,4.5498047-1.6816406c0.206543,0,0.4140625,0.0087891,0.6220703,0.0268555  c1.8911133,0.1655273,3.6054688,1.0683594,4.8266602,2.5415039c2.5244141,3.0449219,2.1308594,7.6005859-0.8764648,10.1547852  c-1.4501953,1.2319336-3.2871094,1.8183594-5.1713867,1.6542969C27.3330078,33.6411133,25.6181641,32.7382812,24.3969727,31.2651367  z"></path><path d="M26.9155273,23.1289062c-1.9018555,1.6157227-2.1513672,4.4960938-0.5566406,6.4208984  c0.1977539,0.2387695,0.4829102,0.3618164,0.7705078,0.3618164c0.2246094,0,0.4511719-0.0751953,0.6376953-0.2299805  c0.425293-0.3525391,0.484375-0.9829102,0.1318359-1.4082031c-0.8999023-1.0859375-0.7602539-2.7099609,0.3115234-3.6201172  c0.4208984-0.3574219,0.472168-0.9887695,0.1147461-1.409668C27.9672852,22.8227539,27.3359375,22.7714844,26.9155273,23.1289062z"></path><path d="M17.5214844,54.5039062c0.5341797,0.0952148,1.0693359,0.1425781,1.6010742,0.1425781  c1.8354492,0,3.6259766-0.5620117,5.1655273-1.6396484c2.0141602-1.4101562,3.3569336-3.5297852,3.7817383-5.9682617  c0.8701172-4.9956055-2.4414062-9.7763672-7.3823242-10.6577148c-2.3793945-0.4238281-4.78125,0.1069336-6.7666016,1.4970703  c-2.0141602,1.4101562-3.3569336,3.5297852-3.7817383,5.9682617C9.269043,48.8413086,12.5805664,53.6220703,17.5214844,54.5039062z   M12.1098633,44.1894531c0.3325195-1.9106445,1.3833008-3.5703125,2.9580078-4.6728516  c1.199707-0.8398438,2.5942383-1.277832,4.0229492-1.277832c0.4135742,0,0.8300781,0.0366211,1.2451172,0.1108398  c3.8598633,0.6884766,6.4453125,4.4321289,5.7631836,8.3457031c-0.3325195,1.9106445-1.3833008,3.5703125-2.9580078,4.6728516  c-1.5463867,1.0834961-3.4179688,1.4975586-5.2680664,1.1669922C14.0131836,51.8461914,11.4277344,48.1025391,12.1098633,44.1894531  z"></path><path d="M18.3046875,49.9335938c0.0595703,0.0107422,0.1186523,0.015625,0.1767578,0.015625  c0.4755859,0,0.8969727-0.3398438,0.9833984-0.8242188c0.097168-0.5439453-0.2651367-1.0629883-0.8085938-1.1601562  c-1.3710938-0.2446289-2.2890625-1.578125-2.0463867-2.972168c0.0947266-0.5439453-0.2695312-1.0620117-0.8139648-1.1567383  c-0.543457-0.0888672-1.0615234,0.2700195-1.1567383,0.8139648C14.2084961,47.1254883,15.8525391,49.4960938,18.3046875,49.9335938z  "></path><path d="M18.2749023,58.8671875c-4.3408203,2.5371094-5.8344727,8.1723633-3.3300781,12.5629883  c1.2202148,2.1391602,3.1928711,3.6655273,5.5541992,4.2983398c0.7763672,0.2080078,1.5639648,0.3105469,2.3461914,0.3105469  c1.5795898,0,3.1386719-0.4189453,4.5419922-1.2392578c4.340332-2.5361328,5.8339844-8.1713867,3.3300781-12.5625  c-1.2202148-2.1391602-3.1923828-3.6655273-5.5537109-4.2983398C22.8217773,57.3115234,20.3745117,57.6396484,18.2749023,58.8671875  z M28.9799805,63.2285156c1.9633789,3.4423828,0.7963867,7.8588867-2.6015625,9.8447266  c-1.6342773,0.9555664-3.5380859,1.2138672-5.3618164,0.7231445c-1.8413086-0.4931641-3.3808594-1.6855469-4.3344727-3.3574219  c-1.9638672-3.4423828-0.7963867-7.8588867,2.6015625-9.8452148c1.6347656-0.9545898,3.5385742-1.2114258,5.3623047-0.7231445  C26.4873047,60.3642578,28.0263672,61.5566406,28.9799805,63.2285156z"></path><path d="M24.0756836,69.0629883c-0.578125,0.3378906-1.2524414,0.4296875-1.8984375,0.2558594  c-0.652832-0.1748047-1.1992188-0.5981445-1.5380859-1.1923828c-0.2744141-0.4799805-0.8852539-0.6474609-1.3642578-0.3730469  c-0.4794922,0.2739258-0.6464844,0.8842773-0.3730469,1.3642578c0.6054688,1.0610352,1.5849609,1.8188477,2.7578125,2.1333008  c0.3862305,0.1035156,0.777832,0.1542969,1.1674805,0.1542969c0.7851562,0,1.5600586-0.2080078,2.2573242-0.6157227  c0.4770508-0.2783203,0.6376953-0.890625,0.3588867-1.3676758C25.1650391,68.9453125,24.5532227,68.7851562,24.0756836,69.0629883z"></path><path d="M36.152832,89.4414062c1.0166016,0.3745117,2.0708008,0.5610352,3.1225586,0.5610352  c1.2993164,0,2.5942383-0.284668,3.8081055-0.8510742c2.222168-1.0361328,3.90625-2.887207,4.7421875-5.2119141  c1.7128906-4.7651367-0.7265625-10.0537109-5.4384766-11.7895508c-2.2719727-0.8364258-4.7329102-0.734375-6.9291992,0.2895508  c-2.2226562,1.0366211-3.9072266,2.8876953-4.7431641,5.2128906C29.0014648,82.4165039,31.440918,87.7050781,36.152832,89.4414062z   M32.5966797,78.3291016c0.6542969-1.8198242,1.9707031-3.2675781,3.706543-4.0766602  c0.9443359-0.4404297,1.9521484-0.6621094,2.9633789-0.6621094c0.8178711,0,1.6381836,0.1450195,2.4291992,0.4365234  c3.6850586,1.3574219,5.5908203,5.5004883,4.2480469,9.2358398c-0.6542969,1.8193359-1.9702148,3.2670898-3.7055664,4.0761719  c-1.7094727,0.7978516-3.625,0.8774414-5.394043,0.2255859C33.1591797,86.2070312,31.253418,82.0639648,32.5966797,78.3291016z"></path><path d="M37.7158203,85.0952148c0.5053711,0.1860352,1.0297852,0.2788086,1.5527344,0.2788086  c0.6455078,0,1.2890625-0.1416016,1.8920898-0.4228516c1.1035156-0.5141602,1.9394531-1.4321289,2.3540039-2.5854492  c0.1870117-0.5195312-0.0830078-1.0922852-0.6025391-1.2792969c-0.519043-0.1884766-1.0922852,0.0834961-1.2792969,0.6025391  c-0.2329102,0.6474609-0.7006836,1.1625977-1.3168945,1.449707c-0.6054688,0.2817383-1.2827148,0.3115234-1.9086914,0.0795898  c-0.5166016-0.1904297-1.0932617,0.0742188-1.2841797,0.5927734C36.9321289,84.3291016,37.1977539,84.9042969,37.7158203,85.0952148  z"></path><path d="M56.9165039,89.1513672c1.2143555,0.5664062,2.5087891,0.8510742,3.8081055,0.8510742  c1.0512695,0,2.105957-0.1865234,3.1225586-0.5610352c4.7119141-1.7363281,7.1513672-7.0249023,5.4379883-11.7890625  c-0.8359375-2.3251953-2.5205078-4.1762695-4.7431641-5.2128906c-2.1967773-1.0234375-4.6567383-1.1269531-6.9291992-0.2895508  c-4.7119141,1.7358398-7.1513672,7.0244141-5.4384766,11.7895508  C53.0102539,86.2641602,54.6943359,88.1152344,56.9165039,89.1513672z M58.3041992,74.0268555  c1.7695312-0.6518555,3.6845703-0.5708008,5.3925781,0.2255859c1.7358398,0.809082,3.0522461,2.2568359,3.706543,4.0766602  c1.3432617,3.7348633-0.5625,7.8779297-4.2475586,9.2353516c-1.7695312,0.6508789-3.6855469,0.5708008-5.394043-0.2255859  c-1.7353516-0.809082-3.0512695-2.2568359-3.7055664-4.0761719C52.7133789,79.5273438,54.6191406,75.3842773,58.3041992,74.0268555z  "></path><path d="M61.9384766,85.1572266c0.1147461,0,0.2314453-0.0200195,0.3457031-0.0620117  c2.3374023-0.8608398,3.5483398-3.4824219,2.6992188-5.8442383c-0.1870117-0.5195312-0.7587891-0.7885742-1.2792969-0.6025391  c-0.5195312,0.1865234-0.7895508,0.7597656-0.6025391,1.2792969c0.4785156,1.331543-0.1977539,2.8081055-1.5087891,3.2905273  C61.074707,83.4091797,60.809082,83.9838867,61,84.5024414C61.1489258,84.9067383,61.5317383,85.1572266,61.9384766,85.1572266z"></path><path d="M72.612793,74.7998047c1.4033203,0.8203125,2.9619141,1.2397461,4.5419922,1.2392578  c0.7822266,0,1.5698242-0.1025391,2.3461914-0.3105469c2.3613281-0.6328125,4.3339844-2.1591797,5.5541992-4.2983398  c2.5043945-4.390625,1.0107422-10.0258789-3.3300781-12.5629883c-2.0986328-1.2270508-4.5449219-1.5551758-6.8886719-0.9282227  c-2.3613281,0.6328125-4.3334961,2.1591797-5.5537109,4.2983398C66.7788086,66.628418,68.2724609,72.2636719,72.612793,74.7998047z   M71.0200195,63.2285156c0.9536133-1.671875,2.4926758-2.8642578,4.3339844-3.3579102  c0.6040039-0.1616211,1.2167969-0.2416992,1.8256836-0.2416992c1.2294922,0,2.4433594,0.3261719,3.5366211,0.9648438  c3.3979492,1.9863281,4.5654297,6.402832,2.6015625,9.8452148c-0.9536133,1.671875-2.4931641,2.8642578-4.3344727,3.3574219  c-1.824707,0.4892578-3.7275391,0.2319336-5.3618164-0.7231445C70.2236328,71.0874023,69.0566406,66.6708984,71.0200195,63.2285156z  "></path><path d="M78.4360352,64.6171875c1.2099609,0.7075195,1.625,2.2817383,0.9248047,3.5092773  c-0.2734375,0.4799805-0.1064453,1.0908203,0.3730469,1.3642578c0.1567383,0.0893555,0.3266602,0.1313477,0.4946289,0.1313477  c0.3476562,0,0.6850586-0.1811523,0.8696289-0.5043945c1.2407227-2.1757812,0.4995117-4.96875-1.6523438-6.2270508  c-0.4775391-0.2797852-1.0898438-0.1181641-1.3681641,0.3583984C77.7988281,63.7260742,77.9594727,64.3383789,78.4360352,64.6171875  z"></path><path d="M89.8608398,43.8466797c-0.4248047-2.4389648-1.7675781-4.5585938-3.7817383-5.96875  c-1.9863281-1.3901367-4.3901367-1.9213867-6.7666016-1.4970703c-4.940918,0.8813477-8.2524414,5.6621094-7.3823242,10.6572266  c0.4248047,2.4389648,1.7675781,4.5585938,3.7817383,5.96875c1.5395508,1.0776367,3.3300781,1.6396484,5.1655273,1.6396484  c0.5317383,0,1.0668945-0.0473633,1.6010742-0.1425781C87.4194336,53.6220703,90.730957,48.8413086,89.8608398,43.8466797z   M82.1269531,52.5351562c-1.8500977,0.3300781-3.7211914-0.0839844-5.2680664-1.1669922  c-1.574707-1.1025391-2.6254883-2.762207-2.9580078-4.6733398c-0.6821289-3.9130859,1.9033203-7.6567383,5.7631836-8.3452148  c0.4155273-0.0742188,0.831543-0.1108398,1.2451172-0.1108398c1.4287109,0,2.8237305,0.4379883,4.0229492,1.277832  c1.574707,1.1025391,2.6254883,2.762207,2.9580078,4.6733398C88.5722656,48.1025391,85.9868164,51.8461914,82.1269531,52.5351562z"></path><path d="M83.484375,41.6899414c-0.9863281-0.6914062-2.1826172-0.9550781-3.3632812-0.7436523  C79.5776367,41.043457,79.215332,41.5625,79.3125,42.1064453s0.6142578,0.9106445,1.1601562,0.8085938  c0.6538086-0.1176758,1.3168945,0.0292969,1.8647461,0.4130859c0.5600586,0.3925781,0.934082,0.9833984,1.0527344,1.6650391  c0.0849609,0.4858398,0.5073242,0.828125,0.984375,0.828125c0.0566406,0,0.1147461-0.0048828,0.1728516-0.0146484  c0.5439453-0.0952148,0.9082031-0.612793,0.8134766-1.1572266C85.1499023,43.4404297,84.4833984,42.3896484,83.484375,41.6899414z"></path><path d="M64.3095703,33.6762695c1.6552734,1.4057617,3.7036133,2.1572266,5.840332,2.1572266  c0.265625,0,0.5327148-0.0112305,0.800293-0.034668c2.4277344-0.2124023,4.6269531-1.3691406,6.1928711-3.2573242  c3.2192383-3.8842773,2.7163086-9.6958008-1.121582-12.9555664c-1.8613281-1.5805664-4.2202148-2.3339844-6.6411133-2.1225586  c-2.4277344,0.2124023-4.6269531,1.3691406-6.1923828,3.2573242C59.96875,24.6049805,60.4716797,30.4165039,64.3095703,33.6762695z   M64.7280273,21.9970703c1.2211914-1.4731445,2.9355469-2.3759766,4.8266602-2.5415039  c0.2084961-0.0180664,0.4155273-0.0268555,0.6220703-0.0268555c1.6635742,0,3.2597656,0.5859375,4.5498047,1.6816406  c3.0073242,2.5541992,3.4008789,7.1098633,0.8764648,10.1547852c-1.2211914,1.4731445-2.9360352,2.3759766-4.8271484,2.5410156  c-1.8842773,0.1645508-3.7211914-0.4228516-5.1713867-1.6542969C62.597168,29.5976562,62.2036133,25.0419922,64.7280273,21.9970703z  "></path><path d="M67.4765625,25.3300781c0.2871094,0,0.5722656-0.1230469,0.7700195-0.3618164  c0.4335938-0.5224609,1.0415039-0.8427734,1.7114258-0.9013672c0.6704102-0.0556641,1.3183594,0.1503906,1.831543,0.5864258  c0.4208984,0.3569336,1.0517578,0.3066406,1.409668-0.1147461c0.3574219-0.4208984,0.3061523-1.0522461-0.1147461-1.409668  c-0.9243164-0.7851562-2.0932617-1.1567383-3.3007812-1.0546875c-1.206543,0.1054688-2.2988281,0.6801758-3.0761719,1.6176758  c-0.3525391,0.4248047-0.2939453,1.0551758,0.1313477,1.4077148C67.0253906,25.2543945,67.2514648,25.3300781,67.4765625,25.3300781  z"></path></svg>