<svg height='100px' width='100px'  fill="#000000" xmlns="http://www.w3.org/2000/svg" xmlns:xlink="http://www.w3.org/1999/xlink" version="1.1" x="0px" y="0px" viewBox="0 0 100 100" style="enable-background:new 0 0 100 100;" xml:space="preserve">>
<g>
	<path d="M88.8,88.4h-35v-5.2c2.9,1.1,6,1.7,9.2,1.7c14.1,0,25.5-11.5,25.5-25.5c0-7-2.8-13.4-7.4-18V19.1c0-0.6-0.4-1-1-1H53.8v-4
		c0-2.1-1.7-3.8-3.8-3.8h-0.5c-2.1,0-3.8,1.7-3.8,3.8v4H19.5c-0.6,0-1,0.4-1,1v46.8c0,0.6,0.4,1,1,1h19.1c1.4,4.4,3.9,8.3,7.2,11.4
		v10.1h-35c-0.6,0-1,0.4-1,1c0,0.6,0.4,1,1,1h78c0.6,0,1-0.4,1-1C89.8,88.8,89.4,88.4,88.8,88.4z M47.7,14.1L47.7,14.1
		c0.1-1,0.9-1.8,1.9-1.8H50c1,0,1.8,0.8,1.8,1.8v4h-4.1V14.1z M20.5,64.9V20.1h58.7v19.6C74.8,36,69.1,33.9,63,33.9
		c-14.1,0-25.5,11.5-25.5,25.5c0,1.9,0.2,3.7,0.6,5.5H20.5z M39.5,59.4c0-13,10.6-23.5,23.5-23.5s23.5,10.6,23.5,23.5
		c0,13-10.6,23.5-23.5,23.5S39.5,72.4,39.5,59.4z M47.8,88.4v-8.5c1.3,1,2.7,1.8,4.1,2.5v6H47.8z"/>
	<path d="M50.3,61.4H61V72c0,1.1,0.9,2,2,2s2-0.9,2-2V61.4h10.6c1.1,0,2-0.9,2-2s-0.9-2-2-2H65V46.8c0-1.1-0.9-2-2-2s-2,0.9-2,2
		v10.6H50.3c-1.1,0-2,0.9-2,2S49.2,61.4,50.3,61.4z"/>
</g>
</svg>
