<?xml version="1.0" encoding="utf-8"?>
<!-- Generator: Adobe Illustrator 25.0.1, SVG Export Plug-In . SVG Version: 6.00 Build 0)  -->
<svg version="1.1" id="Layer_1" xmlns="http://www.w3.org/2000/svg" xmlns:xlink="http://www.w3.org/1999/xlink" x="0px" y="0px"
	 viewBox="0 0 100 100" style="enable-background:new 0 0 100 100;" xml:space="preserve">
<path d="M74.3,17.4c-2.8-2.8-7.3-2.8-10.1,0l-40,40c-0.2,0.2-0.3,0.4-0.3,0.6l-2.5,18.2c-0.1,0.8,0.1,1.5,0.7,2.1
	c0.6,0.6,1.3,0.8,2.1,0.7l18.2-2.5c0.2,0,0.4-0.1,0.6-0.3l40-40c2.8-2.8,2.8-7.3,0-10.1L74.3,17.4z M30.2,76.1l-6.1-6.1l1.4-10.4
	l15,15L30.2,76.1z M32.1,63.4l31.9-31.9l4.8,4.8L36.9,68.2L32.1,63.4z M30.7,62l-4.2-4.2l31.9-31.9l4.2,4.2L30.7,62z M38.3,69.6
	l31.9-31.9l4.2,4.2L42.5,73.8L38.3,69.6z M75.8,40.4L59.9,24.5l1.7-1.7l15.9,15.9L75.8,40.4L75.8,40.4z M23.8,77
	c-0.2,0-0.3-0.1-0.4-0.1c-0.1-0.1-0.2-0.2-0.1-0.4l0.5-3.9l3.9,3.9L23.8,77z M81.5,34.7L79,37.3L63,21.3l2.6-2.6c2-2,5.3-2,7.3,0
	l8.7,8.7C83.5,29.5,83.5,32.7,81.5,34.7z"/>
</svg>
