<svg height='100px' width='100%'  fill="#000000" xmlns="http://www.w3.org/2000/svg" xmlns:xlink="http://www.w3.org/1999/xlink" version="1.1" x="0px" y="0px" viewBox="0 0 100 100" style="enable-background:new 0 0 100 100;" xml:space="preserve"><path d="M41.117,72.233c6.434,0,12.417-1.963,17.384-5.32l21.345,21.345c1.16,1.16,2.683,1.739,4.206,1.739  c1.523,0,3.046-0.58,4.206-1.739c2.319-2.319,2.319-6.093,0-8.412L66.913,58.501c3.358-4.967,5.321-10.951,5.321-17.385  c0-17.158-13.959-31.117-31.117-31.117C23.959,9.999,10,23.958,10,41.116S23.959,72.233,41.117,72.233z M86.844,81.26  c1.539,1.54,1.539,4.044,0,5.584c-1.54,1.539-4.045,1.539-5.584,0L60.135,65.719c2.089-1.618,3.966-3.495,5.584-5.584L86.844,81.26z   M41.117,11.999c16.055,0,29.117,13.062,29.117,29.117S57.172,70.233,41.117,70.233S12,57.171,12,41.116  S25.062,11.999,41.117,11.999z"></path><path d="M41.117,65.708c13.561,0,24.593-11.032,24.593-24.593S54.677,16.523,41.117,16.523c-13.56,0-24.592,11.032-24.592,24.593  S27.557,65.708,41.117,65.708z M41.117,18.523c12.458,0,22.593,10.135,22.593,22.593S53.574,63.708,41.117,63.708  S18.524,53.573,18.524,41.116S28.659,18.523,41.117,18.523z"></path><path d="M26.302,41.321c0-8.056,6.554-14.61,14.61-14.61c0.552,0,1-0.448,1-1s-0.448-1-1-1c-9.159,0-16.61,7.451-16.61,16.61  c0,0.552,0.448,1,1,1S26.302,41.873,26.302,41.321z"></path></svg>