<svg height='100px' width='100px'  fill="#000000" xmlns="http://www.w3.org/2000/svg" xmlns:xlink="http://www.w3.org/1999/xlink" version="1.1" x="0px" y="0px" viewBox="0 0 100 100" style="enable-background:new 0 0 100 100;" xml:space="preserve"><path d="M83.4414062,90H16.5585938C12.9423828,90,10,87.0576172,10,83.4414062V32.7255859  c0-3.6166992,2.9423828-6.559082,6.5585938-6.559082h66.8828125C87.0576172,26.1665039,90,29.1088867,90,32.7255859v50.7158203  C90,87.0576172,87.0576172,90,83.4414062,90z M16.5585938,28.1665039C14.0449219,28.1665039,12,30.2119141,12,32.7255859v50.7158203  C12,85.9550781,14.0449219,88,16.5585938,88h66.8828125C85.9550781,88,88,85.9550781,88,83.4414062V32.7255859  c0-2.5136719-2.0449219-4.559082-4.5585938-4.559082H16.5585938z"></path><path d="M37.2231445,37.5961914H26.1611328c-0.5522461,0-1-0.4477539-1-1v-9c0-0.5522461,0.4477539-1,1-1s1,0.4477539,1,1v8  h9.0620117v-8c0-0.5522461,0.4477539-1,1-1s1,0.4477539,1,1v9C38.2231445,37.1484375,37.7753906,37.5961914,37.2231445,37.5961914z"></path><path d="M35.737793,89.578125c-0.5522461,0-1-0.4477539-1-1V36.5961914c0-0.5522461,0.4477539-1,1-1s1,0.4477539,1,1V88.578125  C36.737793,89.1303711,36.2900391,89.578125,35.737793,89.578125z"></path><path d="M27.6469727,89.578125c-0.5522461,0-1-0.4477539-1-1V36.5961914c0-0.5522461,0.4477539-1,1-1s1,0.4477539,1,1V88.578125  C28.6469727,89.1303711,28.1992188,89.578125,27.6469727,89.578125z"></path><path d="M73.8388672,37.5961914H62.7768555c-0.5522461,0-1-0.4477539-1-1v-9c0-0.5522461,0.4477539-1,1-1s1,0.4477539,1,1v8  h9.0620117v-8c0-0.5522461,0.4477539-1,1-1s1,0.4477539,1,1v9C74.8388672,37.1484375,74.3911133,37.5961914,73.8388672,37.5961914z"></path><path d="M72.3530273,89.578125c-0.5522461,0-1-0.4477539-1-1V36.5961914c0-0.5522461,0.4477539-1,1-1s1,0.4477539,1,1V88.578125  C73.3530273,89.1303711,72.9052734,89.578125,72.3530273,89.578125z"></path><path d="M64.262207,89.578125c-0.5522461,0-1-0.4477539-1-1V36.5961914c0-0.5522461,0.4477539-1,1-1s1,0.4477539,1,1V88.578125  C65.262207,89.1303711,64.8144531,89.578125,64.262207,89.578125z"></path><path d="M68.5234375,27.9985352c-0.5522461,0-1-0.4477539-1-1v-9.9355469C67.5234375,14.2714844,65.2519531,12,62.4599609,12  H37.5400391c-2.7919922,0-5.0634766,2.2714844-5.0634766,5.0629883v9.9355469c0,0.5522461-0.4477539,1-1,1s-1-0.4477539-1-1  v-9.9355469C30.4765625,13.168457,33.6450195,10,37.5400391,10h24.9199219c3.8950195,0,7.0634766,3.168457,7.0634766,7.0629883  v9.9355469C69.5234375,27.5507812,69.0756836,27.9985352,68.5234375,27.9985352z"></path><path d="M56.1225586,56.5283203H43.8774414c-0.5522461,0-1-0.4477539-1-1V41.4741211  c0-0.378418,0.2138672-0.7246094,0.5522461-0.894043l6.1225586-3.0664062c0.28125-0.1416016,0.6142578-0.1416016,0.8955078,0  l6.1225586,3.0664062c0.3383789,0.1694336,0.5522461,0.515625,0.5522461,0.894043v14.0541992  C57.1225586,56.0805664,56.6748047,56.5283203,56.1225586,56.5283203z M44.8774414,54.5283203h10.2451172V42.0917969L50,39.5263672  l-5.1225586,2.5654297V54.5283203z"></path><path d="M50,39.4077148c-0.5522461,0-1-0.4477539-1-1V11.5766602c0-0.5522461,0.4477539-1,1-1s1,0.4477539,1,1v26.8310547  C51,38.9599609,50.5522461,39.4077148,50,39.4077148z"></path><path d="M11.3549805,39.4077148c-0.5522461,0-1-0.4477539-1-1s0.4477539-1,1-1c5.4101562,0,9.8115234-4.4013672,9.8115234-9.8115234  c0-0.5522461,0.4477539-1,1-1s1,0.4477539,1,1C23.1665039,34.1088867,17.8676758,39.4077148,11.3549805,39.4077148z"></path><path d="M22.1665039,89.5703125c-0.5522461,0-1-0.4477539-1-1c0-5.4101562-4.4013672-9.8115234-9.8115234-9.8115234  c-0.5522461,0-1-0.4477539-1-1s0.4477539-1,1-1c6.5126953,0,11.8115234,5.2988281,11.8115234,11.8115234  C23.1665039,89.1225586,22.71875,89.5703125,22.1665039,89.5703125z"></path><path d="M88.5834961,39.4077148c-6.5126953,0-11.8115234-5.2988281-11.8115234-11.8115234c0-0.5522461,0.4477539-1,1-1  s1,0.4477539,1,1c0,5.4101562,4.4013672,9.8115234,9.8115234,9.8115234c0.5522461,0,1,0.4477539,1,1  S89.1357422,39.4077148,88.5834961,39.4077148z"></path><path d="M77.7719727,89.5703125c-0.5522461,0-1-0.4477539-1-1c0-6.5126953,5.2988281-11.8115234,11.8115234-11.8115234  c0.5522461,0,1,0.4477539,1,1s-0.4477539,1-1,1c-5.4101562,0-9.8115234,4.4013672-9.8115234,9.8115234  C78.7719727,89.1225586,78.3242188,89.5703125,77.7719727,89.5703125z"></path></svg>