<svg height='100px' width='100px'  fill="#000000" xmlns="http://www.w3.org/2000/svg" xmlns:xlink="http://www.w3.org/1999/xlink" version="1.1" x="0px" y="0px" viewBox="0 0 100 100" style="enable-background:new 0 0 100 100;" xml:space="preserve"><path d="M89,88H71.9714966l1.3711548-56.3032227h1.4732666c1.6015625,0,2.9047852-1.3032227,2.9047852-2.9052734v-6.9897461  c0-1.6020508-1.3032227-2.9052734-2.9047852-2.9052734H63.5498047V16.206543c0-3.4223633-2.7841797-6.206543-6.206543-6.206543  H42.6567383c-3.4223633,0-6.206543,2.7841797-6.206543,6.206543v2.6899414H25.184082  c-1.6015625,0-2.9047852,1.3032227-2.9047852,2.9052734v6.9897461c0,1.6020508,1.3032227,2.9052734,2.9047852,2.9052734h1.4732666  L28.0285034,88H11c-0.5522461,0-1,0.4477539-1,1s0.4477539,1,1,1h78c0.5522461,0,1-0.4477539,1-1S89.5522461,88,89,88z   M38.4501953,16.206543c0-2.3193359,1.887207-4.206543,4.206543-4.206543h14.6865234  c2.3193359,0,4.206543,1.887207,4.206543,4.206543v2.6899414H38.4501953V16.206543z M25.184082,29.6967773  c-0.4990234,0-0.9047852-0.40625-0.9047852-0.9052734v-6.9897461c0-0.4990234,0.4057617-0.9052734,0.9047852-0.9052734H74.815918  c0.4990234,0,0.9047852,0.40625,0.9047852,0.9052734v6.9897461c0,0.4990234-0.4057617,0.9052734-0.9047852,0.9052734H25.184082z   M69.9713135,88h-39.942627l-1.3710938-56.3032227h42.6848145L69.9713135,88z"></path><path d="M37.5,81.7407227h8.7148438c0.5522461,0,1-0.4477539,1-1V38.7758789c0-0.5522461-0.4477539-1-1-1H36.5  c-0.2695312,0-0.5273438,0.1088867-0.715332,0.3012695c-0.1884766,0.1928711-0.2910156,0.453125-0.2841797,0.7226562l1,41.9648438  C36.5131836,81.3076172,36.9570312,81.7407227,37.5,81.7407227z M45.2148438,39.7758789v39.9648438h-6.7382812  l-0.9526367-39.9648438H45.2148438z"></path><path d="M53.7851562,81.7407227H62.5c0.5429688,0,0.9868164-0.4331055,0.9995117-0.9760742l1-41.9648438  c0.0068359-0.2695312-0.0957031-0.5297852-0.2841797-0.7226562c-0.1879883-0.1923828-0.4458008-0.3012695-0.715332-0.3012695  h-9.7148438c-0.5522461,0-1,0.4477539-1,1v41.9648438C52.7851562,81.2929688,53.2329102,81.7407227,53.7851562,81.7407227z   M54.7851562,39.7758789h7.690918l-0.9526367,39.9648438h-6.7382812V39.7758789z"></path></svg>