<?xml version="1.0" encoding="utf-8"?>
<!-- Generator: Adobe Illustrator 25.0.1, SVG Export Plug-In . SVG Version: 6.00 Build 0)  -->
<svg version="1.1" id="Layer_1" xmlns="http://www.w3.org/2000/svg" xmlns:xlink="http://www.w3.org/1999/xlink" x="0px" y="0px"
	 viewBox="0 0 100 100" style="enable-background:new 0 0 100 100;" xml:space="preserve">
<rect x="37.8" y="12" width="24.5" height="4.1"/>
<rect x="21" y="18.1" width="58" height="8"/>
<path d="M26,28.1L28.8,88h42.3L74,28.1H26z M39.5,80.2c0,0.6-0.4,1-1,1s-1-0.4-1-1v-44c0-0.6,0.4-1,1-1c0.6,0,1,0.4,1,1V80.2z
	 M51,80.2c0,0.6-0.4,1-1,1s-1-0.4-1-1v-44c0-0.6,0.4-1,1-1s1,0.4,1,1V80.2z M62.5,80.2c0,0.6-0.4,1-1,1c-0.6,0-1-0.4-1-1v-44
	c0-0.6,0.4-1,1-1c0.6,0,1,0.4,1,1V80.2z"/>
</svg>
