<svg height='100px' width='100px'  fill="#000000" xmlns="http://www.w3.org/2000/svg" xmlns:xlink="http://www.w3.org/1999/xlink" version="1.1" x="0px" y="0px" viewBox="0 0 100 100" style="enable-background:new 0 0 100 100;" xml:space="preserve"><path d="M80.6000977,62.2651367H76.796875c-0.5522461,0-1,0.4477539-1,1s0.4477539,1,1,1h3.8032227c0.5522461,0,1-0.4477539,1-1  S81.1523438,62.2651367,80.6000977,62.2651367z"></path><path d="M71.6289062,62.2651367h-3.8032227c-0.5522461,0-1,0.4477539-1,1s0.4477539,1,1,1h3.8032227c0.5522461,0,1-0.4477539,1-1  S72.1811523,62.2651367,71.6289062,62.2651367z"></path><path d="M89,10H11c-0.5522461,0-1,0.4477539-1,1v57.1376953c0,0.5522461,0.4477539,1,1,1h26.1135254l-1.7107544,9.9760742h-4.868103  c-0.5522461,0-1,0.4477539-1,1V89c0,0.5522461,0.4477539,1,1,1H69.465332c0.5522461,0,1-0.4477539,1-1v-8.8862305  c0-0.5522461-0.4477539-1-1-1h-4.868103l-1.7107544-9.9760742H89c0.5522461,0,1-0.4477539,1-1V11C90,10.4477539,89.5522461,10,89,10  z M68.465332,88H31.534668v-6.8862305H68.465332V88z M62.5675659,79.1137695H37.4324341l1.7106934-9.9760742h21.7137451  L62.5675659,79.1137695z M88,67.1376953H12V12h76V67.1376953z"></path><path d="M18.1518555,59.215332h63.6962891c0.5522461,0,1-0.4477539,1-1V18.0112305c0-0.5522461-0.4477539-1-1-1H18.1518555  c-0.5522461,0-1,0.4477539-1,1V58.215332C17.1518555,58.7675781,17.5996094,59.215332,18.1518555,59.215332z M19.1518555,19.0112305  h61.6962891V57.215332H19.1518555V19.0112305z"></path><path d="M73.6054688,45.9672852l-4.9892578,4.8525391c-0.3959961,0.3847656-0.4047852,1.0180664-0.0195312,1.4140625  c0.1958008,0.2016602,0.4560547,0.3027344,0.7167969,0.3027344c0.2514648,0,0.5029297-0.0942383,0.6972656-0.2832031L75,47.4008789  c0.3959961-0.3847656,0.4047852-1.0180664,0.0195312-1.4140625C74.6352539,45.5913086,74.0014648,45.5830078,73.6054688,45.9672852z  "></path><path d="M72.5419922,40.6025391c-0.3842773-0.3959961-1.0180664-0.4057617-1.4140625-0.0205078l-8.0439453,7.8110352  c-0.3959961,0.3847656-0.4052734,1.0175781-0.0205078,1.4140625c0.1958008,0.2016602,0.456543,0.3032227,0.7172852,0.3032227  c0.2509766,0,0.5024414-0.09375,0.6967773-0.2827148l8.0439453-7.8110352  C72.9174805,41.6318359,72.9267578,40.9990234,72.5419922,40.6025391z"></path></svg>