<svg height='100px' width='100px'  fill="#000000" xmlns="http://www.w3.org/2000/svg" xmlns:xlink="http://www.w3.org/1999/xlink" version="1.1" x="0px" y="0px" viewBox="0 0 100 100" style="enable-background:new 0 0 100 100;" xml:space="preserve"><path d="M50,32.7177734c-9.5292969,0-17.2822266,7.7529297-17.2822266,17.2822266S40.4707031,67.2822266,50,67.2822266  S67.2822266,59.5292969,67.2822266,50S59.5292969,32.7177734,50,32.7177734z M50,65.2822266  c-8.4267578,0-15.2822266-6.8554688-15.2822266-15.2822266S41.5732422,34.7177734,50,34.7177734  S65.2822266,41.5732422,65.2822266,50S58.4267578,65.2822266,50,65.2822266z"></path><path d="M57.3623047,44.7333984H42.6376953c-0.5527344,0-1,0.4477539-1,1v8.5332031c0,0.5522461,0.4472656,1,1,1h14.7246094  c0.5527344,0,1-0.4477539,1-1v-8.5332031C58.3623047,45.1811523,57.9150391,44.7333984,57.3623047,44.7333984z   M56.3623047,53.2666016H43.6376953v-6.5332031h12.7246094V53.2666016z"></path><path d="M80.6513672,51.6523438v-3.3046875c0-2.0546875-1.6708984-3.7260742-3.7255859-3.7260742h-2.5758667  c-1.0512695-4.7625732-3.4637451-9.0187988-6.8126831-12.3347778l-0.9844971-21.3327026  C66.5283203,10.4199219,66.0878906,10,65.5537109,10H34.4462891c-0.5341797,0-0.9746094,0.4199219-0.9990234,0.9541016  l-0.9844971,21.3327026C27.8949585,36.8096924,25.0595703,43.0791626,25.0595703,50s2.8353882,13.1903076,7.4031982,17.7131958  l0.9844971,21.3327026C33.4716797,89.5800781,33.9121094,90,34.4462891,90h31.1074219  c0.5341797,0,0.9746094-0.4199219,0.9990234-0.9541016l0.9844971-21.3327026  c3.348938-3.315979,5.7614136-7.5722046,6.8126831-12.3347778h2.5758667  C78.9804688,55.378418,80.6513672,53.7070312,80.6513672,51.6523438z M35.4013672,12h29.1972656l0.8511963,18.4430542  C61.197876,27.0768433,55.831665,25.0595703,50,25.0595703s-11.197876,2.0172729-15.4498291,5.3834839L35.4013672,12z   M64.5986328,88H35.4013672l-0.8511963-18.4430542C38.802124,72.9231567,44.168335,74.9404297,50,74.9404297  s11.197876-2.0172729,15.4498291-5.3834839L64.5986328,88z M50,72.9404297  c-12.6494141,0-22.9404297-10.2910156-22.9404297-22.9404297S37.3505859,27.0595703,50,27.0595703  S72.9404297,37.3505859,72.9404297,50S62.6494141,72.9404297,50,72.9404297z M74.7053833,46.621582h2.2203979  c0.9511719,0,1.7255859,0.7744141,1.7255859,1.7260742v3.3046875c0,0.9516602-0.7744141,1.7260742-1.7255859,1.7260742h-2.2203979  C74.855835,52.2727051,74.9404297,51.1463013,74.9404297,50S74.855835,47.7272949,74.7053833,46.621582z"></path></svg>