<svg xmlns="http://www.w3.org/2000/svg" width="12.73" height="15.71" viewBox="0 0 12.73 15.71"><path d="M13.36,13.65c0,1.06-1.35,2.21-2.95,2.21-.73,0-1.08-.29-1.57-1.34-1.22-2.66-1.72-3.59-2.62-3.88a26.67,26.67,0,0,0-.66,3.72,1.13,1.13,0,0,1-1,.35,2,2,0,0,1-1.84-1.9,13.07,13.07,0,0,1,1-3.74C4.28,7.4,4.94,5.48,5.64,3.19A5.37,5.37,0,0,0,1.92,6.1a1.06,1.06,0,0,1-.45.1C1,6.2.64,5.75.64,5.05.64,3.07,4,.14,8.09.14c3.33,0,5,1.63,5,3.92C13.09,6,12,7.69,9.75,9.73a10.78,10.78,0,0,1,1.87,2.75c.23.47.42.58.71.58a4.13,4.13,0,0,0,.8-.11A1.07,1.07,0,0,1,13.36,13.65ZM10,5.09c0-1-.6-1.86-2.27-2a32.34,32.34,0,0,1-1,5.69,3.16,3.16,0,0,1,.64-.06,4.2,4.2,0,0,1,1,.13C9.6,7.2,10,6.25,10,5.09Z" transform="translate(-0.64 -0.14)" fill="#fa5c66"/></svg>